<?xml version="1.0" encoding="UTF-8" standalone="no"?>
<svg
   xmlns:dc="http://purl.org/dc/elements/1.1/"
   xmlns:cc="http://creativecommons.org/ns#"
   xmlns:rdf="http://www.w3.org/1999/02/22-rdf-syntax-ns#"
   xmlns:svg="http://www.w3.org/2000/svg"
   xmlns="http://www.w3.org/2000/svg"
   xmlns:sodipodi="http://sodipodi.sourceforge.net/DTD/sodipodi-0.dtd"
   xmlns:inkscape="http://www.inkscape.org/namespaces/inkscape"
   version="1.0"
   width="1480.4058"
   height="1177.2003"
   viewBox="0 0 8524.4094 6778.5047"
   id="svg3912"
   sodipodi:docname="Future_Forward_Party_logo.svg"
   inkscape:version="0.92.4 (5da689c313, 2019-01-14)">
  <metadata
     id="metadata3918">
    <rdf:RDF>
      <cc:Work
         rdf:about="">
        <dc:format>image/svg+xml</dc:format>
        <dc:type
           rdf:resource="http://purl.org/dc/dcmitype/StillImage" />
      </cc:Work>
    </rdf:RDF>
  </metadata>
  <defs
     id="defs3916" />
  <sodipodi:namedview
     pagecolor="#ffffff"
     bordercolor="#666666"
     borderopacity="1"
     objecttolerance="10"
     gridtolerance="10"
     guidetolerance="10"
     inkscape:pageopacity="0"
     inkscape:pageshadow="2"
     inkscape:window-width="640"
     inkscape:window-height="480"
     id="namedview3914"
     showgrid="false"
     inkscape:zoom="0.11324376"
     inkscape:cx="565.21189"
     inkscape:cy="597.36937"
     inkscape:window-x="0"
     inkscape:window-y="0"
     inkscape:window-maximized="0"
     inkscape:current-layer="svg3912" />
  <g
     id="g3906"
     style="fill:#092f57"
     transform="translate(-1855.5905,-2661.2421)">
    <path
       d="m 2268,9430 c -56,-9 -166,-50 -195,-73 -133,-105 -195,-206 -212,-342 -5,-44 -7,-104 -4,-132 l 6,-53 h 587 v 190 h -175 c -165,0 -175,1 -175,19 0,32 43,102 80,130 70,55 107,66 215,66 89,0 105,-3 152,-27 59,-31 91,-60 121,-112 83,-140 64,-332 -44,-440 -69,-69 -104,-81 -234,-81 -90,0 -123,4 -150,18 -43,21 -93,65 -109,95 -11,21 -19,22 -135,22 h -124 l 19,-51 c 26,-68 44,-96 100,-150 67,-67 172,-115 296,-136 98,-16 108,-16 204,0 117,20 190,48 262,101 131,96 199,241 200,426 0,110 -13,168 -64,275 -48,102 -188,211 -314,245 -55,15 -238,21 -307,10 z m 1147,-5 c -100,-21 -169,-66 -221,-143 -76,-113 -78,-123 -82,-534 l -3,-368 h 230 l 3,338 c 3,319 4,339 24,382 45,96 111,134 229,134 119,0 181,-32 241,-126 36,-56 44,-138 44,-445 v -283 h 230 v 1040 h -230 v -110 l -31,27 c -99,90 -269,124 -434,88 z m 6400,0 c -65,-14 -123,-44 -170,-87 l -30,-28 -3,55 -3,55 H 9390 V 8380 h 230 v 324 c 0,305 1,327 21,373 45,106 127,157 254,157 65,0 89,-4 129,-24 56,-29 101,-87 115,-151 6,-25 11,-185 11,-361 v -318 h 230 v 338 c 0,195 -4,363 -11,395 -13,73 -63,171 -111,219 -94,94 -271,131 -443,93 z M 4670,9000 v -420 h -430 v -200 h 660 v 1040 h -230 z m 430,83 c 0,-301 2,-345 19,-399 25,-84 47,-120 108,-181 68,-68 134,-101 251,-124 118,-24 146,-24 259,0 193,42 295,128 354,300 17,49 19,88 19,398 v 343 h -230 v -324 c 0,-218 -4,-334 -12,-357 -19,-58 -67,-115 -116,-140 -41,-21 -61,-24 -153,-24 -100,0 -108,2 -150,29 -90,60 -118,117 -126,256 l -6,105 30,-32 c 50,-53 109,-72 244,-80 l 119,-6 v 203 h -74 c -98,0 -210,26 -247,57 -51,43 -59,71 -59,198 v 115 h -230 z m 1565,330 c -240,-53 -372,-191 -410,-424 -13,-84 -13,-105 0,-184 16,-98 42,-175 79,-233 55,-87 185,-174 302,-203 l 52,-12 102,80 102,80 62,-38 c 33,-22 68,-42 76,-46 8,-4 30,-17 49,-30 31,-21 45,-23 152,-23 h 119 v 1040 h -230 v -417 c 0,-395 -1,-415 -17,-401 -10,8 -40,28 -68,44 -27,15 -52,31 -55,34 -12,15 -83,50 -100,50 -10,0 -63,-34 -119,-75 -71,-53 -105,-73 -118,-68 -37,13 -101,74 -122,115 -49,99 -49,264 1,358 58,108 144,156 298,166 l 100,7 v 187 l -117,-1 c -65,-1 -127,-3 -138,-6 z"
       id="path3902"
       inkscape:connector-curvature="0" />
    <path
       d="m 7630,8903 v -518 l 41,-20 c 46,-22 127,-80 162,-116 91,-95 99,-237 18,-318 -77,-77 -197,-79 -288,-7 -36,29 -73,96 -73,133 0,23 -1,23 -115,23 h -115 v -27 c 0,-41 34,-146 61,-190 76,-123 203,-183 389,-183 242,1 390,115 421,326 28,185 -49,342 -228,466 l -43,29 v 729 h 160 v 190 h -390 z m 590,-3 v -520 h 230 v 400 h 257 l 114,-200 114,-200 h 123 c 76,0 122,4 122,10 0,6 -21,43 -46,83 -25,39 -68,110 -96,157 -28,47 -59,100 -70,118 l -20,32 h 232 v 640 h -230 v -450 h -500 v 450 h -230 z m 1937,-677 c -4,-3 -7,-84 -7,-180 v -173 h 230 v 360 h -108 c -60,0 -112,-3 -115,-7 z"
       id="path3904"
       inkscape:connector-curvature="0" />
  </g>
  <g
     id="g3910"
     style="fill:#ee7421"
     transform="translate(-1855.5905,-2661.2421)">
    <path
       d="m 5820,7148 c -156,-271 -324,-563 -374,-648 -79,-137 -164,-285 -207,-360 -8,-14 -16,-27 -19,-30 -3,-3 -12,-18 -20,-35 -8,-16 -25,-47 -38,-68 -13,-21 -31,-53 -42,-71 -10,-18 -24,-44 -32,-57 -7,-13 -15,-26 -19,-29 -3,-3 -13,-21 -23,-40 -9,-19 -28,-53 -41,-75 -13,-22 -29,-49 -34,-60 -6,-11 -22,-38 -36,-60 -14,-22 -32,-53 -40,-70 -9,-16 -24,-43 -34,-60 -10,-16 -28,-46 -40,-65 -11,-19 -26,-46 -33,-60 -6,-14 -17,-32 -24,-40 -6,-8 -25,-40 -41,-70 -42,-78 -56,-103 -69,-120 -6,-8 -25,-40 -41,-70 -17,-30 -39,-69 -49,-87 -10,-17 -37,-62 -58,-100 -57,-99 -27,-47 -635,-1102 -309,-536 -559,-979 -556,-985 3,-6 17,-29 30,-51 14,-22 28,-48 32,-58 5,-16 37,-17 527,-15 l 521,3 479,830 c 523,908 497,863 550,955 20,36 41,72 46,80 33,55 159,273 178,310 14,25 30,52 36,60 7,8 18,26 24,40 7,14 22,41 34,60 11,19 37,64 56,100 20,36 38,67 41,70 3,3 13,19 21,35 8,17 17,32 20,35 3,3 16,25 29,50 13,25 29,52 36,60 7,8 18,30 26,48 8,17 16,32 20,32 3,0 11,16 19,35 8,19 17,35 22,35 4,0 8,5 8,10 0,6 15,34 33,63 18,29 39,66 47,82 8,17 17,32 20,35 3,3 12,19 20,35 8,17 17,32 20,35 10,9 100,172 100,180 0,5 4,10 9,12 4,2 28,39 52,83 53,96 29,54 232,403 92,159 167,295 167,302 0,7 -80,151 -177,319 -97,168 -197,342 -222,386 -24,44 -47,82 -50,85 -3,3 -18,28 -33,55 l -27,50 -78,3 -79,3 z m 1058,-713 c -18,-31 -42,-71 -52,-88 -10,-18 -32,-57 -49,-87 -16,-30 -35,-62 -41,-70 -13,-17 -27,-42 -69,-120 -16,-30 -35,-62 -41,-70 -6,-8 -17,-26 -24,-39 -38,-66 -56,-99 -73,-126 -10,-16 -24,-41 -32,-55 -7,-14 -23,-41 -34,-61 -12,-20 -27,-47 -35,-60 -7,-13 -18,-31 -24,-39 -20,-25 -84,-153 -80,-159 4,-8 148,-257 161,-279 6,-10 30,-53 54,-97 24,-44 47,-82 50,-85 3,-3 16,-23 27,-45 38,-71 78,-140 84,-145 3,-3 12,-20 19,-37 8,-18 16,-33 20,-33 3,0 12,-14 20,-31 13,-30 73,-135 88,-154 4,-5 15,-23 23,-40 8,-16 17,-32 20,-35 3,-3 12,-18 20,-35 8,-16 25,-47 38,-68 22,-37 38,-64 83,-144 12,-21 25,-42 29,-48 4,-5 19,-30 32,-55 14,-25 34,-61 46,-81 11,-20 26,-47 34,-60 7,-13 18,-31 24,-39 6,-8 26,-42 44,-75 43,-78 51,-93 78,-135 12,-19 22,-38 22,-42 0,-5 -461,-8 -1024,-8 H 5292 l -240,-417 c -132,-230 -245,-423 -251,-430 -6,-7 -11,-14 -11,-17 0,-2 -18,-36 -40,-75 -22,-39 -40,-75 -40,-81 0,-7 670,-9 2132,-8 l 2132,3 39,68 39,67 -278,483 c -153,265 -280,484 -283,487 -3,3 -13,19 -21,35 -8,17 -34,64 -59,105 -65,112 -81,140 -114,200 -16,30 -35,62 -41,70 -6,8 -17,26 -24,39 -8,13 -23,40 -35,60 -11,20 -27,47 -34,61 -8,14 -25,43 -39,65 -13,22 -29,49 -34,60 -5,11 -21,38 -34,60 -14,22 -31,51 -39,65 -7,14 -23,41 -34,61 -12,20 -27,47 -35,60 -7,13 -18,31 -24,39 -6,8 -25,40 -41,70 -17,30 -39,71 -51,91 -11,20 -26,47 -34,60 -7,13 -18,31 -24,39 -6,8 -25,40 -41,70 -17,30 -95,168 -175,305 -79,138 -251,437 -382,665 -132,228 -245,421 -252,429 -10,11 -18,4 -46,-44 z"
       id="path3908"
       inkscape:connector-curvature="0" />
  </g>
</svg>
