<?xml version="1.0" encoding="utf-8"?>
<!-- Generator: Adobe Illustrator 21.0.0, SVG Export Plug-In . SVG Version: 6.00 Build 0)  -->
<svg version="1.1" id="Layer_1" xmlns="http://www.w3.org/2000/svg" xmlns:xlink="http://www.w3.org/1999/xlink" x="0px" y="0px"
	 viewBox="0 0 405.6 121.7" style="enable-background:new 0 0 405.6 121.7;" xml:space="preserve">
<style type="text/css">
	.st0{fill:#0078B9;}
	.st1{fill:#737A7F;}
	.st2{fill:#FDFDFC;}
	.st3{fill:#F8F8F8;}
	.st4{fill:#F5F5F5;}
	.st5{fill:#FFFFFF;}
	.st6{fill:#0078B6;}
	.st7{fill:#F2F1F3;}
	.st8{fill:none;stroke:#8CC041;stroke-width:2;}
</style>
<g>
	<g>
		<path class="st0" d="M135.7,43.7l-1.1-4l10.2,0v17.2c0,2.7,2.2,4.8,6.2,4.8c4.2,0,6.6-2.1,6.6-4.8V30.7h7V57
			c0,5.3-5.7,9.7-13.6,9.7c-7.9,0-13.5-4.4-13.5-9.7c0-3.9,0-7.3,0-9.2c0-2.5,2.2-4.2,2.2-4.2H135.7z"/>
		<path class="st0" d="M201.9,42h-6.4v6.1h12.7l1.1-4c0,0-3.3,0-4.5,0c-1.8,0-2.8,1.1-2.8,1.1L201.9,42z"/>
		<path class="st0" d="M201.9,57h-6.4v6.1h12.7l1.1-4c0,0-3.3,0-4.5,0c-1.8,0-2.8,1.1-2.8,1.1L201.9,57z"/>
		<path class="st0" d="M214.2,48.6v9c0,5,4.7,9.1,12,9.1c7.5,0,12.6-4.1,12.6-9.1V46.7c0-2.6-2-4.4-5-5.1c2.9-0.3,5-3.2,5-6.1v-4.9
			h-7V35c0,3-1.9,4.6-4.9,4.6h-1.8v4.1h1.8c3.6,0,4.9,1,4.9,3.3v10.4c0,2.7-2.5,4.2-5.7,4.2c-3.5,0-5.4-2-5.4-4.7V39.6h-0.6h-6h-2.9
			l1.1,4.1h4.2C216.6,43.7,214.2,44.9,214.2,48.6z"/>
		<path class="st0" d="M298.2,43.7l-1.1-4l10.2,0v17.2c0,2.7,2.2,4.8,6.2,4.8c4.2,0,6.6-2.1,6.6-4.8V30.7h7V57
			c0,5.3-5.6,9.7-13.6,9.7c-7.9,0-13.5-4.4-13.5-9.7c0-3.9-0.1-7.3-0.1-9.2c0-2.5,2.2-4.2,2.2-4.2H298.2z"/>
		<path class="st0" d="M330.7,37.9l1.1-3.9h-2.5h-15.2c0,0,0.9-0.7,0.9-2.1c0-0.7,0-1.3,0-1.3h-6.5v7.3H329H330.7z"/>
		<path class="st0" d="M268.4,56.7l6.2-0.9v1.5v3.4c1.5,0.4,3,1.1,7.3,1.1c3.6,0,6.1-1.4,6.1-3.2c0-2.3-2.2-3.3-7.5-4.3
			c-6.4-1.2-11.6-3-11.6-7.8c0-4.5,3.8-7.6,10.9-7.6c5.5,0,12.5,1.3,12.5,1.3v5.1c0,0-6.6-1.8-11.7-1.8c-4.3,0-5.3,1.4-5.3,2.9
			c0,1.6,1.4,2.6,7.6,3.6c7.3,1.1,12.1,3.8,12.1,8.6c0,4.9-4.2,8.1-12.8,8.1c-7.1,0-13.9-2.3-13.9-2.3l0.1-7.1L268.4,56.7z"/>
		<path class="st0" d="M378.7,44.8h1.3l1.1-4.7l-12.6,0c0,0,0,4.1,0,5.8c0,5.2,4.9,5.7,4.9,5.7c-3.6,0.4-5.5,2.9-5.5,5.6V58
			c0,5.2,6.2,9.2,14.2,9.2c8,0,13.2-4,13.2-9.2V40.1h-7v17.3c0,2.7-2.4,4.8-6.8,4.8c-4.2,0-6.7-2.1-6.7-4.8v-0.4
			c0-2,1.5-3.4,4.1-3.4h4l0.6-4.1l-3.3,0c-3.9,0-5.3-0.9-5.3-2.7c0-1.4,0-3.1,0-3.1S375.5,44.8,378.7,44.8z"/>
		<path class="st0" d="M255.9,65.9V48.2c0-3.4-2.1-4.6-5.9-4.6c-4.4,0-7.3,1.5-8.4,2.1l-0.1-4.8c1.3-0.5,4.5-1.8,8.4-1.8
			c8.5,0,12.8,3.6,12.8,9.1v17.7H255.9z"/>
		<polygon class="st0" points="270.1,35.3 271.2,30.6 292.3,30.6 292.3,35.3 		"/>
		<path class="st0" d="M179.4,66.3c8.6,0,12.8-3,12.8-7.8c0-4.3-2.8-7.6-10.3-8.7c-6.3-0.9-7.2-2.6-7.2-3.7c0-1.1,1-2.9,5.3-2.9
			c5.1,0,10.5,1.8,10.5,1.8v-5.1c0,0-5.9-1.3-11.4-1.3c-7.1,0-10.9,3.4-10.9,7.6c0,4.9,6,7.2,11.2,7.9c5.4,0.8,5.9,2.2,5.9,4.2
			c0,1.8-2.1,3.1-5.7,3.1c-3.9,0-11.3-1.8-11.3-1.8v4.9C168.4,64.6,174,66.3,179.4,66.3z"/>
		<path class="st0" d="M399.7,34.3h-2.1l0,0h-3.2c0,0,0.8,0.7,0.8,2c0,0.7,0,1.2,0,1.2h-7v-6.8h9.2h0.1l4.2,0h1.1l-1.1,3.6H399.7z"
			/>
		<path class="st0" d="M355.2,39.3c-0.3,0-0.5,0.1-0.6,0.1l0,0l0,0l-6.1,2.2c-0.2,0.1-0.4,0.1-0.5,0l-6.4-2.2l0,0
			c-0.2-0.1-0.4-0.1-0.5-0.1c-5.7,0.5-8.5,3.5-8.5,7.1v10c0,7.2,4.6,10.2,12,10.2c3.6,0,6.3-1.2,6.3-1.2l-1.8-4.4
			c0,0-2.6,0.5-4.5,0.5c-5,0-5-2.6-5-7.3c0-3.4,0-7.7,0-7.7c0-1.1,0.3-2.1,1.6-2.6c0.1,0,0.3-0.1,0.6,0l6.2,2.2c0.1,0,0.3,0.1,0.5,0
			l0,0l6.1-2.2l0,0l0,0c0.1,0,0.3-0.1,0.6,0c1.2,0.6,1.5,1.6,1.5,2.6v19.7h6.7V46.4C363.5,42.9,360.8,39.9,355.2,39.3z"/>
	</g>
</g>
<g>
	<path class="st1" d="M6.9,61.6c0-29.5,24-53.5,53.5-53.5c29.5,0,53.5,24,53.5,53.5c0,29.5-24,53.4-53.5,53.4
		C30.9,115,6.9,91.1,6.9,61.6z M5.1,61.6c0,30.5,24.8,55.3,55.3,55.3c30.5,0,55.3-24.8,55.3-55.3c0-30.5-24.8-55.3-55.3-55.3
		C29.9,6.3,5.1,31.1,5.1,61.6z"/>
	<path class="st0" d="M11.7,61.6C11.7,75,17.1,87.2,26,96l0,0c8.8,8.8,21,14.3,34.4,14.3l0,0c13.4,0,25.6-5.5,34.4-14.3l0,0
		c8.8-8.8,14.3-21,14.3-34.4l0,0c0-13.4-5.5-25.6-14.3-34.4l0,0c-8.8-8.8-21-14.3-34.4-14.3l0,0C47,12.9,34.8,18.3,26,27.2l0,0
		C17.1,36,11.7,48.2,11.7,61.6L11.7,61.6L11.7,61.6z M2.5,61.6c0-31.9,25.9-57.9,57.9-57.9l0,0c31.9,0,57.9,25.9,57.9,57.9l0,0
		c0,31.9-26,57.9-57.9,57.9l0,0C28.5,119.5,2.5,93.5,2.5,61.6L2.5,61.6z"/>
	<path class="st2" d="M113.5,62.4c0,29.3-23.8,53.1-53.1,53.1c-29.3,0-53.1-23.8-53.1-53.1c0-29.3,23.8-53.1,53.1-53.1
		C89.7,9.3,113.5,33.1,113.5,62.4z"/>
	<path class="st0" d="M85.6,86.6l-4.5-5.4c0,0-1-1.5-3.3-1.5h-5.2c0,0-0.3-1.4-0.8-2.3c-0.4-0.9-1.2-3.3-1.4-3.8
		c-0.2-0.6-0.8-1.1-1.4-1c-0.6,0.1-1.3,0.9-1.9,1.1c-0.6,0.2-2.7,0.9-2.7,0.9s0.8-2.7,1.2-3.7c0.4-1,1.2-1.4,1.2-1.4s-0.9-2.8-1-3.5
		c-0.6-3.2-2.3-4.9-4.4-5.7c-1-0.4-2.2,1.5-3.3,1.4c-1.4-0.1-2.5,0-3.5,0.3c-1.4,0.4-2.5-1.1-2.2-0.9c0.7,0.5-1.1,0-1.1,0
		c0.6,1.1,0.6,1.7,0.1,3c-0.7,1.7-3.1,1.6-3.1,1.6l-1.4-0.1c-3.8-1.1-5.9-0.4-7,1c-1.8,2.2,1.5,6.8,2.4,9c0.9,2.3,0,4.1,0,4.1
		c-2.3,0-3.3,1.5-3.3,1.5l-4.5,5.4c-3.3-3.2-5.2-9.3-5.2-9.6c0-0.3,0.2-1,0.8-0.1c0.6,0.9,3.6,3.6,3.6,3.6c-0.5-0.6-1.7-4.3-2.5-6.2
		c-0.9-1.9-2.6-1-2.6-1c-1-6.1,1.3-9.3,1.3-9.3c-1,0.3-1.5,0.8-1.5,0.8c0.3-3,3.9-10.5,4.5-10.4c0.6,0,0.4,7,0.4,7
		c4.7-8.8,1.7-12.1-0.4-11.8c-2,0.3-4,3.5-4,3.5c0.8-8.4,7.8-10.5,7.8-10.5c-1.3-0.8-3.1-0.4-3.1-0.4c1.7-3.2,7.5-6,7.5-6
		c-1.9-0.7-3.5-0.5-3.5-0.5c0.5-1.7,3.5-3.1,3.5-3.1c-0.9-0.3-1.5-0.1-1.5-0.1c1.6-2.4,5.8-4.2,5.8-4.2c-0.6-0.2-1.2,0-1.2,0
		c1.9-1.4,4.8-3.2,4.8-3.2c-0.5-0.3-1-0.3-1-0.3c2.4-3.1,5.7-4.9,5.7-4.9c-4.2-1.3-7.6,0.8-7.6,0.8c0.4-0.4,0-1.4,0-1.4
		c-0.7,1.2-5.9,4.1-5.9,4.1c0.2-0.4-0.5-1.9-0.5-1.9c-0.7,2.3-5.8,7-5.8,7c0.2-0.6-0.9-2.2-0.9-2.2c-0.3,1.7-4.2,8.4-4.2,7.9
		c0-0.1,0-0.2-0.1-0.3c-0.2-0.7-0.7-1.8-0.7-1.8c-0.1,1.5-1.1,3.9-1.1,3.9c-0.1-0.6-1.7-2.4-1.7-2.4c0.5,1.9-0.6,8.1-0.6,8.1
		c-0.2-0.9-1.6-1.7-1.6-1.7c0.6,3.6-1.3,8.3-1.3,8.3c-0.1-0.6-1.5-1.7-1.5-1.7c0.6,2.4,0.1,6,0.1,6c-0.2-0.7-2-2.1-2-2.1
		c1,2.4,1,15.2,1,15.2c-0.3-0.4-1.9-0.5-1.9-0.5c1.3,2.3,2.8,11.1,2.8,11.1c-0.9-0.8-2.1-0.9-2.1-0.9c2.8,6.6,8.3,13.3,8.3,13.3
		c-1.3,0.2-1.8,0.1-1.8,0.1c4,3.7,15.3,9.3,15.3,9.3l0,0v4c5.3,3.2,12.3,5.2,20.1,5.2c7.8,0,14.8-2,20.1-5.2v-4
		c5.9-2.4,6.2-3.1,7.8-3.7c1.6-0.6,3.4-0.8,4.8-1.8c1.4-1,3.2-1.8,3.2-1.8c-3-0.2-2.9,0.3-3.9,1c-1,0.7-1.8,0.4-1.8,0.4
		c0.9-0.7,2-1.4,2-1.4C89.7,90.6,88,91,88,91c6.2-1.5,4.9-7.4,4.9-7.4c2.9,0.7,3-1.4,3-1.4c1.9,0.3,2.5-1.4,2.5-1.4
		c1.6,0.7,2.4-0.2,2.8-0.5c0.4-0.2,1.6,0,2.1-0.6c0.6-0.6,0.2-2.2,0.2-2.2c0.7-1.1,0.1-2.3,0.1-2.3c1.6-1,0.9-2.1,1.1-2.5
		c0.2-0.4,0.5-1.2,0.4-1.8c-0.1-0.6-1.5-1.2-2-1.4c-0.5-0.2,0.1-0.5,0.1-0.5c1.7-0.3,1.2-2,1.8-2.2c0.7-0.2,1.1-1.4,1.2-2
		c0.1-0.7-1.2-1.6-1.5-2.4c-0.3-0.8-0.9-1.7-2-1.6c-1.2,0.1-1.6,1.1-2.4,1.2c-0.8,0.1-1.3,0.8-1.3,0.8c-0.4-0.2-1.3-0.3-2.1,0
		c-0.8,0.4-0.6,1.2-1.4,1.6c-0.8,0.5-1.6,0.3-1.9,1.2c-0.2,1,0.5,1.3,0.4,2c0,0.7-0.3,0.6-0.3,1.4c0,0.8,0.5,0.7,0.3,1.4
		c-0.2,0.7-1,0.9-1.3,1.5c-0.3,0.6,0.1,0.8,0.1,1.4c0,0.6-0.4,0.8-0.6,1.4c-0.2,0.6,0.6,1.3,0.6,1.3s-0.3,0.3-1.2,0.5
		c-0.9,0.2-1.2,0.9-1.2,0.9c-0.5,1-0.1,0.5-0.8,2.4c-0.7,1.8,1.4,2.5,2.2,2.6c0.8,0.1,1,1,1,1c-1.3,0-3,1.6-3,1.6
		c0.5-1.3-0.3-3.4-0.6-3.8c-0.3-0.4-0.9-2.3-0.9-2.3c-3.9,3-2.7,7.4-2.7,7.4"/>
	<path class="st0" d="M96.6,62.3c0,0-2.2,0.8-3.4-2.3c0,0,0.9,0.1,1-1.1c0.1-1.2,0.2-3.4,0-4.2c0,0,3,2.4,3.5,2.4c0.5,0,1-1.1,1-1.1
		s0.6,1.7,0.9,2.4c0.3,0.7,0.6,2.2-0.5,2.9c0,0,0.3-1.8-1.5-2.4c0,0-0.2-0.9-1.8-1.1c0,0-0.2,1.5,0.6,2
		C96.4,59.8,94.8,61.4,96.6,62.3z"/>
	<path class="st0" d="M101.9,60.1c0,0-1.2-1.3-0.6-3.3c0,0,0.9,0.3,1.3,0c0.3-0.3,2.2-2.8,2.3-3.5c0,0,0.9,0.8,0.9,3.4
		c0,0.8,0.3,1.1,0.5,1.3c0,0-1,1.7-0.9,2.8c0,0-0.9-0.2-0.9-1.6c0-1.4,0-2.4-0.6-2.5c-0.6-0.1-0.6,1.5-0.6,1.5S101.9,58,101.9,60.1z
		"/>
	<path class="st0" d="M94.4,49.6c0,0,0.2,1.5,0.6,2.4c0.5,0.9,0.9,3.1,2.9,3.5c0,0-0.9-1.2-0.9-2.1C97,52.5,97,50,94.4,49.6z"/>
	<path class="st0" d="M93.9,52c0,0-1.5,1.2-2.2-0.3c-0.7-1.5-0.7-2.4-1.2-2.9c-0.5-0.5-0.1-2.1,0.8-2.4c0.8-0.3,0.9-1.4,1.6-1.9
		c0.7-0.5,2.1-0.7,2.9-0.1c0.9,0.6,1.6,0.4,2.1,0.5c0.5,0.1,1.3,1.8,2,1.8c0.6,0,0.4-1,1.3-1.3c0.9-0.3,0.6-1.6,0-1.9
		c-0.7-0.3-1.7-0.5-1.7-1.1c0-0.6-1.8-1.4-1.9-0.3c0,1.1-0.5,1.7-0.5,1.7s-1.7-0.7-2.4-0.9c0,0,1.2-0.1,1.3-0.9
		c0.2-0.8-1.2-1.1-0.8-1.5c0.4-0.4,0.8-1.6,0.1-1.8c-0.7-0.1-1.2,0.2-1.8-0.1c-0.5-0.2-1.8-1.2-2.5-0.5c-0.7,0.6-0.1,2.1,0.4,2.7
		c0.4,0.6-1,0.8-0.8,1.7c0.2,0.9,1.5,0.7,1.2,1.4c-0.3,0.8-2.9,0.4-2.3-2.6c0.2-0.7,0-1.2-1.1-1.3c-1.1-0.1-4-2.6-4.6-3.5
		c0,0,0.8,0.1,1.6,0.1c0.8,0,3.5-0.3,3.8,1.6c0,0-0.9-0.3-2.1-0.3c0,0,0.4,1.4,1.7,1.4c1.3,0-0.1-1.5,2.3-2.4c1-0.3,1.8,0.5,2.6,0.6
		c0.8,0.1,2.4-0.1,2.7,0.7c0,0,1-1.5,1.2-2.3c0,0,2.9,2.3,1.1,4.5c0,0-0.2-2.1-0.9-2c-0.6,0.1-0.9,2.2-0.4,2.2
		c0.5,0.1,1.6,0.1,2.3,0.9c0.7,0.8,0.8,0.9,1.2,1c0.4,0.2,1.7,0.6,1.7,2.2c0,1.6-1.1,1.3-0.5,2.8c0.6,1.5,2.8,6.6-0.5,8.1
		c0,0,1.7-4.2-1-6.7c0,0-0.7,0.4-0.5,2.1c0.2,1.6-0.9,1.7-0.9,2.9c0,1.2,1.2,1.7,1.2,1.7s-1.6,0.6-2.1-0.9c-0.5-1.6,0.2-3.9-1.6-5.9
		c0,0,1.4-0.5,0.8-1.9c-0.6-1.4-1.5-0.4-2-0.6c-0.5-0.2-0.8-1.2-1.8-1c-1.1,0.2-0.7,1.4-1,1.8c-0.4,0.4-1.3,0.2-1.3,1.5
		c0,1.3,0.9,0.8,1.2,1.4C92.9,50.3,91.4,50.9,93.9,52z"/>
	<path class="st0" d="M99.2,47.6c0,0-0.8,0.9-0.4,2.2c0.3,1.3,0.2,2,0.2,2S99.8,49.9,99.2,47.6z"/>
	<path class="st0" d="M93.8,29.8c0,0-0.4,1.7-0.8,3c-0.4,1.3-0.5,3.4,1.4,3.6c0,0-0.6-1.9-0.1-3c0,0,1.4,1.2,1,2.9
		c0,0,1.5-0.5,0.8-2.5C95.5,31.9,93.8,30.1,93.8,29.8z"/>
	<path class="st0" d="M87.3,30.6c0,0-0.5,5.7,2.5,6.1c0,0-0.9-2.2-0.8-2.9c0,0,2.2,1.3,2.5,1.9c0,0,0.7-1.6-1.2-2.7
		C88.5,31.9,87.3,30.6,87.3,30.6z"/>
	<path class="st0" d="M62.8,18.9c0,0,1.9,4.9,5.2,4.8c3.3-0.1,3.8-0.6,4,1c0,0-1.7,0.5-2.6,0.4c0,0,0.3,1.3,3.7,2.4
		c3.4,1.1,4-0.7,4-0.7s-3.2,0.6-4.7-1c0,0,1.6-0.5,3.1-0.3c1.5,0.2,2-0.4,3.6,0c0,0-0.3-0.9-1.2-1.4c-0.9-0.5-1.6-2.2-1.6-2.2
		s3.2,0.2,4.1,2.5c0,0,0.5-1.9-1-2.7c-1.5-0.8-4.1-1.9-4.1-2.2c0,0-0.3,0.9,0.2,2.2c0,0-1.9-2.2-6-2.2c0,0-0.1,0.8,0.7,1.6
		c0,0-0.6-0.9-2.8-1.1C64.9,19.8,63.2,19.5,62.8,18.9z"/>
	<path class="st0" d="M74.4,29.1c0,0,2.2-1.1,3.5-0.9c0,0-0.6-2.2,2.1-2c0,0,0.1-1.3,1.4-1.7c1.3-0.3,2.7,0.7,2.2,2.1
		c0,0-0.5-1.1-1.7-0.9c-1.2,0.2-0.4,1.1-1,1.3c-0.6,0.2-1.5,0.1-1.6,0.9c-0.1,0.8,0.8,1.1,1,1.5c0.2,0.4,0.4,0.9,0.7,1.2
		c0.3,0.3,1.2,0.1,1.6,0.3c0.6,0.4,0.1,2,0.7,2.5c0,0,0.4,0.4,1.1,0.5c0.7,0.1,1.5,1.1,2.4,0.6c0,0-1.3,1.7-3.4,0.5
		c-2.1-1.2-1.3-3.1-2.5-3.3C79.5,31.6,77.2,32.1,74.4,29.1z"/>
	<path class="st0" d="M86.5,33.1c0,0-1.3-0.9-2.2-1.2c-1-0.3-1.2-1.1-1.1-1.9c0.1-0.7,0.7-0.9,1.1-1.5c0.3-0.6-0.4-1.8,0.6-2.4
		c0.9-0.6,2.8,0.7,3,1.2c0,0,2.8-0.2,2.1,2.7c0,0,1.3,0.1,2.2,2.6c0,0-1.2-1.7-3-1.6c0,0,0.1-1.5-0.4-2.2c-0.5-0.7-1.5-0.2-1.5-0.2
		s-0.4-1.8-1.5-1.4c-1.1,0.4-0.3,1.8-0.3,1.8s-1.1,0.1-1,1.1c0.1,1,1.4,0.6,1.8,1.1C86.6,31.8,86.8,32.9,86.5,33.1z"/>
	<path class="st0" d="M95.4,83.6c0,0,1.2,2.1,2.5-0.1c0,0,0.6,0.8,1.3,0.4c0.7-0.4,0.5-1.8-0.1-2.1c0,0,1.5,0.1,1.5,1.5
		c0.1,1.5-2,1.7-2.5,1.5c0,0-0.6,1.1-2.2,0.7C94.4,85.1,95.4,83.6,95.4,83.6z"/>
	<path class="st0" d="M99.5,85.5c0,0-1.2,1-3.4,1.1c-2.2,0.1-3.2,2.3-2.5,3.2C94.3,90.8,97.7,90.4,99.5,85.5z"/>
	<path class="st3" d="M34.3,38c0,0,0.9-1.6,3.9-1.4C38.2,36.7,36.5,38,34.3,38z"/>
	<path class="st3" d="M45.4,23c0,0,0.3-2.1,5.2-2.5c0,0-2.2,3-4.3,3.5c0,0,0.4-1.1,1-1.6C47.4,22.4,46.2,23,45.4,23z"/>
	<path class="st3" d="M41.1,24.2c0,0,0.1-0.8,1.4-1.3c1.3-0.5,2.1-0.7,2.1-0.7s-0.3,1-1.5,1.4C42,24,41.1,24.2,41.1,24.2z"/>
	<path class="st3" d="M40.1,26c0,0,1.4-1.2,4-1.6c0,0-1.1,2.2-3.3,3.1c0,0,0.4-1.3,0.9-1.7C41.7,25.9,40.8,26.1,40.1,26z"/>
	<path class="st3" d="M42.8,27.8c0,0,0.6-1.2,1.5-1.8c0.9-0.6,2.2-0.5,2.2-0.5S45.4,27.5,42.8,27.8z"/>
	<path class="st3" d="M35.3,28.6c0,0,0.5-1.7,1.8-2.4c1.3-0.7,2.2-1.4,2.2-1.4s-0.4,1.7-2,2.5C35.7,28.2,35.3,28.6,35.3,28.6z"/>
	<path class="st3" d="M34.7,30.8c0,0,1.4-1.8,2.7-2.3c1.3-0.6,1.9-1.1,1.9-1.1s-1.4,3.3-3.6,4.7c0,0,0.5-1.1,0.5-1.5
		C36.3,30.6,35.4,30.9,34.7,30.8z"/>
	<path class="st3" d="M37.6,32c0,0,0.6-1.2,1.2-1.9c0.6-0.7,2.8-1.3,2.8-1.3s-1.1,1.8-1.9,2.4C38.9,31.8,37.6,32,37.6,32z"/>
	<path class="st3" d="M30,34.7c0,0,0-1.4,0.9-2.5c0.9-1.1,2.2-2.3,2.2-2.3s0.2,1.8-1.3,3.2C30.3,34.4,30,34.7,30,34.7z"/>
	<path class="st3" d="M30.2,37.6c0,0-0.8-0.9,0.5-2.1c1.4-1.2,3.4-3.1,3.4-3.1s-0.7,4-3.1,5.9c0,0,0.3-1.2,0.2-1.5
		C31.3,36.9,30.6,37.1,30.2,37.6z"/>
	<path class="st3" d="M33.7,37c0,0,1-1.7,1.6-2.5c0.6-0.9,2.7-1.4,2.7-1.4s-1.3,1.4-1.8,2.2C35.7,36.1,33.7,37,33.7,37z"/>
	<path class="st3" d="M26.2,41.9c0,0-0.3-1.9,0.2-2.9c0.5-1.1,2.4-3.7,2.4-3.7s0.5,2-0.2,3.1C27.9,39.5,26.2,41.3,26.2,41.9z"/>
	<path class="st3" d="M26.6,44.7c0,0,0.6-4,3.1-5.8c0,0,0.2,4.3-2,6c0,0-0.2-0.7,0.1-1.5C27.9,43.4,27.2,44.5,26.6,44.7z"/>
	<path class="st3" d="M29.9,44.5c0,0,0-1.9,0.8-3.3c0.8-1.4,3.6-2.2,3.6-2.2s-1,0.9-1.7,2.3C31.7,42.7,30.9,44.2,29.9,44.5z"/>
	<path class="st3" d="M23.1,49.7c0,0-0.3-1.8,0.3-3.9c0.6-2,1.4-3.1,1.4-3.1s1,1.7,0.4,3C24.6,47,23,48.5,23.1,49.7z"/>
	<path class="st3" d="M23.9,51.4c0,0-0.4-1.9,2.4-4.9c0,0,1,2.8-0.8,5.5c0,0-0.4-1.3-0.5-1.7C25,50.5,24.7,51.2,23.9,51.4z"/>
	<path class="st3" d="M27.2,51.1c0,0-0.2-3.9,2.2-5C29.4,46.1,29.3,49.8,27.2,51.1z"/>
	<path class="st3" d="M21.5,56.6c0,0-1-1.5-0.3-3.1c0.6-1.6,0.7-3.2,0.7-3.2s1.5,1.4,0.8,2.8C22,54.6,21.4,56.2,21.5,56.6z"/>
	<path class="st3" d="M22.8,58.6c0,0-0.9-3.4,1.2-5.7c0,0,1.4,3.4,0.2,6.4c0,0-0.6-0.9-0.5-1.8C23.7,57.6,23.3,58.3,22.8,58.6z"/>
	<path class="st3" d="M25.9,58.1c0,0-1.2-4.1,1.3-5.2C27.2,52.8,28,55.4,25.9,58.1z"/>
	<path class="st3" d="M33.4,51c0,0,2.6,0,0.9,5.1C34.3,56.2,34.3,51.5,33.4,51z"/>
	<path class="st3" d="M26.8,63.5c0,0,0.5-8.3,5.1-11.3C31.9,52.2,27.3,60.4,26.8,63.5z"/>
	<path class="st3" d="M20.4,57.2c0,0,2,3.5,0.3,8.1C20.7,65.3,19.7,60.2,20.4,57.2z"/>
	<path class="st3" d="M23.3,59.6c0,0-2,3-1.1,6.8c0,0,0.9-1.3,1-1.9c0,0,0.4,0.9,1,1.3C24.2,65.8,24.7,62.3,23.3,59.6z"/>
	<path class="st3" d="M25.3,59.3c0,0-0.6,0.8,0.1,2.8C25.4,62,26.2,60.9,25.3,59.3z"/>
	<path class="st3" d="M26.2,64.7c0,0-2.1,1.5-0.4,4.4C25.9,69.1,27.4,66.3,26.2,64.7z"/>
	<path class="st3" d="M19.2,66.5c0,0,1.8,0.3,2,2.5c0.2,2.2-0.1,3.5,0.1,4c0,0-1.2-1.7-1.2-3.7C20,67.3,19.2,66.5,19.2,66.5z"/>
	<path class="st3" d="M23.3,67c0,0-1.6,2.8-0.5,6.2c0,0,0.7-1,0.9-1.8c0,0,0.7,1.2,1.3,1.5C25,73,25.4,69.4,23.3,67z"/>
	<path class="st3" d="M27,69.5c0,0-1.3,1.7-0.1,5.7C26.9,75.2,28,73,27,69.5z"/>
	<path class="st3" d="M28.9,74.2c0,0,1.6-0.9,1.8,2.1C30.7,76.3,29.2,75,28.9,74.2z"/>
	<path class="st3" d="M21,74.1c0,0-0.4,4.7,2.2,6.7c0,0-0.9-2.5-0.8-3.7C22.5,75.8,21.7,74.3,21,74.1z"/>
	<path class="st3" d="M23.9,73.6c0,0-0.9,2.9,0.5,6.4c0,0,0.7-0.4,0.7-1.1c0,0,0.4,0.8,1.5,1.5C26.5,80.3,26.9,76.3,23.9,73.6z"/>
	<path class="st3" d="M28,76.5c0,0-1.6,3.7,1.3,6.8c0,0-0.1-2.1-0.6-3.4C28.2,78.5,28,76.5,28,76.5z"/>
	<path class="st3" d="M23.5,82.1c0,0,0.2,4,3.4,5.7c0,0-1.6-2.7-1.8-3.7C24.9,83,24,82.3,23.5,82.1z"/>
	<path class="st3" d="M25.9,81.4c0,0-0.3,3.7,2.7,6.6c0,0,0.1-1.5-0.3-2.1c0,0,0.7,0.3,1.6,0.3C30,86.3,28.2,82.6,25.9,81.4z"/>
	<path class="st3" d="M29.8,88c0,0,1,3.7,4.9,3.6C34.7,91.6,34.6,88.8,29.8,88z"/>
	<polygon class="st3" points="65.6,86.9 60,91.9 54.5,86.9 	"/>
	<polygon class="st3" points="70.3,86.9 60,96.2 49.7,86.9 48.1,86.9 60,97.6 71.9,86.9 	"/>
	<polygon class="st3" points="66.9,86.9 60,93.1 53.1,86.9 51.3,86.9 60,94.8 68.8,86.9 	"/>
	<path class="st3" d="M35.5,87c0.5,0.4,1,0.8,1.5,1.2h10.8L46.4,87L35.5,87z"/>
	<path class="st3" d="M38,88.9c0.6,0.4,1.2,0.8,1.8,1.2H50l-1.4-1.2H38z"/>
	<path class="st3" d="M41.4,91.2c1.4,0.8,2.8,1.5,4.2,2.1h7.8l-2.3-2.1H41.4z"/>
	<path class="st3" d="M49,94.4c1.8,0.5,3.8,1,5.7,1.2H56l-1.4-1.2H49z"/>
	<path class="st3" d="M84.4,87c-0.5,0.4-1,0.8-1.4,1.2H72.2l1.4-1.2L84.4,87z"/>
	<path class="st3" d="M82,88.9c-0.6,0.4-1.2,0.8-1.8,1.2H70l1.4-1.2H82z"/>
	<path class="st3" d="M78.6,91.2c-1.3,0.8-2.8,1.5-4.2,2.1h-7.8l2.3-2.1H78.6z"/>
	<path class="st3" d="M71,94.4c-1.8,0.5-3.8,1-5.7,1.2h-1.3l1.4-1.2H71z"/>
	<path class="st3" d="M73,96.6c-3.8,1.3-8.2,2-13,2c-4.8,0-9.2-0.7-13-2h-2.2c4.2,1.7,9.5,2.8,15.2,2.8c5.7,0,11-1,15.2-2.8H73z"/>
	<path class="st3" d="M34.9,88.7c0,0,4.6,3.3,8.1,4.7l0,2.5c0,0-1.6-0.9-1.9-1.2c-0.3-0.2-1.1-0.5-1.1,0.3c0,0.9,0,1.8,0,1.8
		s-5.1-2-6.7-3.7c0,0,3-0.3,4,0c0,0-0.5-1.1-1.1-1.9C35.5,90.4,34.9,88.7,34.9,88.7z"/>
	<path class="st3" d="M85,88.7c0,0-4.6,3.3-8.1,4.7v2.5c0,0,1.6-0.9,2-1.2c0.3-0.2,1.1-0.5,1.1,0.3c0,0.9,0,1.8,0,1.8s5.1-2,6.7-3.7
		c0,0-3-0.3-4,0c0,0,0.5-1.1,1.1-1.9C84.4,90.4,85,88.7,85,88.7z"/>
	<path class="st3" d="M79.3,95.4c-5.2,3-11.9,4.8-19.3,4.8c-7.4,0-14.2-1.8-19.3-4.8v5.9c5.2,3,11.9,4.8,19.3,4.8
		c7.4,0,14.2-1.8,19.3-4.8V95.4z"/>
	<path d="M87.3,86.4c0,0-1.5-2.4,0.5-5.5c0,0,1,1.8,0.7,3C88.3,85.1,87.3,86.4,87.3,86.4z"/>
	<path class="st3" d="M86.2,91.6c0,0,0.8-1.1,1.2-2.2c0.3-1.1,0.7-2.6,1.2-2.9c0,0,0.2,1.9-0.3,2.7c0,0,1.1-0.5,1.4-1.6
		c0.4-1.2,0.9-2.2,2.2-2.9c0,0,0.8,3.8-3.7,5.4C87.6,90.4,86.5,91.1,86.2,91.6z"/>
	<path d="M94.5,89.1c0,0-0.2-1.9,3-1.9C97.5,87.3,96.6,89.6,94.5,89.1z"/>
	<path class="st4" d="M95.4,78.5c-0.4,0-0.8,0.1-1,0.4c0,0,0-0.1,0-0.1c0-0.8-0.6-1.4-1.3-1.4c-0.7,0-1.3,0.6-1.3,1.4
		c0,0.2,0.1,0.5,0.2,0.7c-0.1,0-0.3-0.1-0.5-0.1c-0.8,0-1.3,0.5-1.3,1.1c0,0.6,0.6,1.1,1.3,1.1c0.4,0,0.7-0.1,0.9-0.3
		c0,0,0,0.1,0,0.1c0,0.8,0.6,1.5,1.3,1.5c0.7,0,1.3-0.7,1.3-1.5l0,0c0.1,0,0.3,0,0.4,0c0.9,0,1.6-0.6,1.6-1.4
		C96.9,79.1,96.2,78.5,95.4,78.5z"/>
	<path class="st4" d="M102.5,77.3c0.3-0.2,0.4-0.6,0.4-1c0-0.8-0.6-1.4-1.4-1.4c-0.4,0-0.7,0.1-0.9,0.3c-0.2-0.4-0.6-0.7-1.1-0.7
		c-0.6,0-1.2,0.5-1.2,1.2c0,0.3,0.1,0.5,0.3,0.7c-0.4,0.2-0.7,0.6-0.7,1c0,0.4,0.2,0.8,0.6,1c-0.1,0.2-0.2,0.4-0.2,0.6
		c0,0.7,0.6,1.3,1.4,1.3c0.6,0,1.1-0.4,1.3-0.9c0.1,0.1,0.3,0.1,0.5,0.1c0.8,0,1.4-0.6,1.4-1.3C102.9,77.9,102.7,77.6,102.5,77.3z"
		/>
	<path class="st4" d="M97.9,73.4c0-0.8-0.7-1.5-1.5-1.5c-0.2,0-0.4,0-0.6,0.1c-0.2-0.3-0.5-0.5-0.9-0.5c-0.6,0-1.1,0.5-1.1,1.1
		c0,0.4,0.2,0.7,0.5,0.9c-0.6,0.1-1.1,0.6-1.1,1.3c0,0.7,0.6,1.3,1.3,1.3c0.2,0,0.3,0,0.5-0.1c0.2,0.6,0.8,1,1.4,1
		c0.8,0,1.5-0.7,1.5-1.5c0-0.4-0.2-0.8-0.4-1C97.7,74.3,97.9,73.9,97.9,73.4z"/>
	<path class="st4" d="M103.7,71.8c0-0.7-0.6-1.3-1.3-1.3c-0.1,0-0.1,0-0.2,0c0.1-0.2,0.1-0.3,0.1-0.5c0-0.7-0.6-1.3-1.3-1.3
		c-0.7,0-1.3,0.6-1.3,1.3c0,0.1,0,0.2,0,0.3c-0.1,0-0.3-0.1-0.4-0.1c-0.7,0-1.3,0.6-1.3,1.4c0,0.7,0.6,1.4,1.3,1.4
		c0.2,0,0.3,0,0.5-0.1c0,0.1-0.1,0.3-0.1,0.4c0,0.8,0.6,1.4,1.4,1.4c0.8,0,1.4-0.6,1.4-1.4c0-0.1,0-0.1,0-0.2
		C103.3,73,103.7,72.4,103.7,71.8z"/>
	<path class="st4" d="M100,66.3c0-0.7-0.6-1.3-1.2-1.3c0,0,0-0.1,0-0.1c0-0.7-0.6-1.3-1.3-1.3c-0.7,0-1.3,0.6-1.3,1.3
		c0,0.1,0,0.3,0.1,0.4c-0.2-0.1-0.4-0.1-0.6-0.1c-0.7,0-1.2,0.5-1.2,1.2c0,0.4,0.2,0.8,0.5,1c-0.2,0.2-0.3,0.5-0.3,0.9
		c0,0.7,0.6,1.4,1.4,1.4c0.5,0,1-0.3,1.2-0.8c0.2,0.2,0.6,0.4,0.9,0.4c0.7,0,1.3-0.6,1.3-1.3c0-0.2,0-0.4-0.1-0.5
		C99.8,67.1,100,66.8,100,66.3z"/>
	<path class="st4" d="M103.9,63.5c-0.1,0-0.3,0-0.4,0.1c0.2-0.2,0.3-0.5,0.3-0.8c0-0.7-0.6-1.3-1.3-1.3c-0.7,0-1.3,0.6-1.3,1.3
		c0,0,0,0.1,0,0.1c-0.2-0.1-0.4-0.1-0.6-0.1c-0.7,0-1.2,0.5-1.2,1.2c0,0.7,0.5,1.2,1.2,1.2c0.1,0,0.2,0,0.3,0
		c-0.1,0.2-0.2,0.5-0.2,0.8c0,0.9,0.6,1.6,1.3,1.6c0.6,0,1.1-0.5,1.3-1.2c0.2,0.1,0.3,0.1,0.5,0.1c0.8,0,1.4-0.6,1.4-1.4
		C105.2,64.1,104.6,63.5,103.9,63.5z"/>
	<path class="st0" d="M97.7,67.3c-0.2,0.2-0.5,0.2-0.7-0.1c-0.3-0.2-0.3-0.5-0.2-0.7c0.2-0.2,0.5-0.2,0.7,0
		C97.8,66.8,97.9,67.1,97.7,67.3z"/>
	<path class="st0" d="M101.2,72.5c-0.2,0.1-0.5-0.1-0.6-0.4c-0.1-0.3,0-0.6,0.2-0.7c0.2-0.1,0.5,0.1,0.6,0.4
		C101.6,72.1,101.5,72.4,101.2,72.5z"/>
	<path class="st0" d="M100,77.9c-0.2-0.1-0.3-0.5-0.1-0.7c0.2-0.3,0.5-0.4,0.7-0.3c0.2,0.1,0.3,0.5,0.1,0.7
		C100.5,77.9,100.2,78,100,77.9z"/>
	<path class="st0" d="M93.2,80.1c0-0.2,0.2-0.3,0.5-0.3c0.2,0,0.4,0.2,0.4,0.4c0,0.2-0.2,0.3-0.5,0.3C93.3,80.4,93.1,80.2,93.2,80.1
		z"/>
	<path class="st0" d="M101.8,64.3c0-0.2,0.2-0.3,0.5-0.3c0.2,0,0.4,0.2,0.4,0.4c0,0.2-0.2,0.3-0.5,0.3
		C102,64.7,101.8,64.5,101.8,64.3z"/>
	<path class="st0" d="M96,74.5c-0.1,0.2-0.4,0.2-0.6,0c-0.2-0.2-0.3-0.4-0.2-0.6c0.1-0.2,0.4-0.2,0.6,0C96,74.1,96.1,74.4,96,74.5z"
		/>
	<path class="st4" d="M64.7,20.6c0,0,1,2.1,4.4,1.9C69.1,22.5,68.8,21.8,64.7,20.6z"/>
	<path class="st4" d="M71.4,21.3c0,0,2.5,0.2,4.8,2.7c0,0-1.1,0.4-3.1-0.6C71.2,22.3,71.7,21.9,71.4,21.3z"/>
	<path class="st5" d="M76.2,29.4c0,0,1.1,1.7,3.4,1.2c0,0-0.7-0.9-1.4-1.2C77.4,29.2,76.2,29.4,76.2,29.4z"/>
	<ellipse class="st0" cx="82.2" cy="28.6" rx="0.6" ry="0.5"/>
	<ellipse class="st0" cx="93.1" cy="41.1" rx="0.6" ry="0.5"/>
	<path class="st0" d="M95.1,48c0,0.3-0.3,0.5-0.6,0.5c-0.3,0-0.6-0.2-0.6-0.5c0-0.3,0.2-0.5,0.6-0.5C94.8,47.6,95.1,47.8,95.1,48z"
		/>
	<path class="st3" d="M49.5,58.8c0,0-0.4,1.4-0.9,2.2c-0.4,0.7,0.6,1.5,1.4,0.2C50.8,59.9,49.5,58.8,49.5,58.8z"/>
	<path class="st3" d="M55.8,35.7c0,0-1.5,1.7-1.9,3.4c-0.3,1.8-0.8,2.4-1,2.4c0,0-0.3-0.2-0.6-2.1c-0.2-1.9-0.7-3.4,0.5-3.6
		C54,35.7,55.8,35.7,55.8,35.7z"/>
	<path class="st3" d="M52.6,50.5c0,0-0.2,0.8-0.2,1.1c0,0,1,0.7,1.2,1.4c0,0,0.5-1.9,0.5-2.3C54.2,50.7,53.5,50.7,52.6,50.5z"/>
	<path class="st3" d="M55.1,55.8c0,0,2.5,0.6,4.1-0.6c0,0,0.2,1.4,0,2.2c-0.2,0.8,1.8,2.1,1.7,3.1c0,0-0.6,0.8-0.7,0.9
		c0,0-1.4-0.7-2.4-1.6C56.8,58.7,55.6,57.6,55.1,55.8z"/>
	<path class="st3" d="M63.5,62.6c-2.7,2.3-6.6,2.3-8.2,2.7l-0.4,1.5c0,0,7.8-1.4,8.9-3.6C63.8,63.2,63.7,63,63.5,62.6z M62,61.3
		c0,0-4.1,1.5-6.1,1.7l-0.4,1.9c2.9,0,6.5-1.8,7.7-2.9C62.9,61.7,62.5,61.4,62,61.3z"/>
	<path class="st3" d="M53.2,69.3l-0.1,0.5c0,0,0.9,0.6,3.2,0.5c2.3-0.1,3.6-1.2,5.2-1.1c1.5,0.1,3.3,0.6,3.3,0.6l0.3-0.6
		c0,0-2-0.7-4.2-0.6c-2.2,0.1-2.8,1.3-5.2,1.2C53.4,69.6,53.2,69.3,53.2,69.3z"/>
	<path class="st3" d="M52.6,62.2c0,0,1.1,3.1-2.1,4.4c-0.1,0-0.1,0-0.2,0.1c0.3,0.4,0.9,0.9,2.1,1c0-0.1,0.1-0.1,0.2-0.1
		c0.8-0.4,2.3-2,2.6-4.4L52.6,62.2z M44.3,65.9c-2.2-0.3-3,0.4-3.7,1.4c-0.9,1.2,0.9,4.2,1.4,5.6c0.9-0.1,2.9-0.6,4.2-2.6
		c-0.1-0.2-0.3-0.3-0.4-0.4c-0.5-0.4-0.6-0.9,0.2-1c0.8-0.1,1.8,1.5,2.2,1.9c0.4,0.4,3.4,3.8,3.4,3.8s2.8-3,2.8-3.5
		C53.7,70.6,49.2,66.5,44.3,65.9z M42.4,73.8c0.3,0.7,0.6,1.2,0.6,1.2s3.6-1.3,4.3-3.3c0,0-0.2-0.3-0.4-0.6
		C46.1,71.4,45.7,72.6,42.4,73.8z"/>
	<path class="st3" d="M51.7,79.2c0,0,0.5,0.1,0.9,1c0.4,0.9-0.2,1.9-1.3,2.3c-1.2,0.4-0.7,0.9-2.5,1.7C47,85.1,45,83.6,45,83.6
		c0.6-0.2,2.3-0.6,3.1-1.6c0.9-1,1.7-1.2,1.7-1.2S51.5,79.9,51.7,79.2z"/>
	<path class="st3" d="M52,75.2l0.4,0.6c0,0,1.7-1.9,2.3-2.4c0.6-0.5,1.5-1.7,2-1.9c0,0-0.5-0.3-0.7-0.3C55.9,71.2,53.2,73.6,52,75.2
		z"/>
	<path class="st3" d="M53.8,79.2l0.3,1.6c0,0,9-10.3,9.1-10.6l-0.6-0.1C62.6,70.1,54.2,79.1,53.8,79.2z"/>
	<path class="st3" d="M63.8,70.4c0,0,0.8,0.1,0.9,0.3c0,0,0.4,1.5-2.4,5.6c-2.7,4-5.1,5-5.2,5.9c0,0,0,0.3,0.5,0.1
		c0.5-0.1,0.8-0.3,0.8-0.3s0.6,0.9,0.5,2c0,0-2.5,1-4,0.3c-1.5-0.7-1.4-2.5,0.7-4.3c2.1-1.8,4.4-4.7,5.2-5.8
		C61.5,73,63.7,71,63.8,70.4z"/>
	<path class="st3" d="M60.1,80.6l0.5,2.8c0.3-0.1,0.6-0.2,0.9-0.3l-1-3.1C60.4,80.2,60.3,80.4,60.1,80.6z M59.1,81.8
		c0,0,0.5,1.4,0.3,2c0,0,0.3-0.1,0.7-0.2l-0.4-2.4C59.4,81.5,59.2,81.8,59.1,81.8z"/>
	<path class="st3" d="M67.5,74.1c0,0,1-0.5,1.2-0.7c0.2-0.2,1.3-0.2,1.5,1.2c0.2,1.4,0.5,2.2,1,3c0.4,0.8,1.1,3-0.9,4.3
		c0,0-0.1-1.5-0.5-2.3c-0.4-0.9-1.6-3-1.6-3.8C68.1,75,67.5,74.1,67.5,74.1z"/>
	<path class="st5" d="M78.8,69.9c0,0-1.2,3.9,1.4,5.6c0,0-0.5-1-0.5-2.1C79.8,72.2,78.8,69.9,78.8,69.9z"/>
	<path class="st5" d="M80.2,71.5c0,0,0.2,2.7,1.8,4c1.6,1.3,1.7,2.3,1.7,2.3s0.1-2.3-1-4C81.7,72.2,80.2,71.5,80.2,71.5z"/>
	<path class="st5" d="M81.1,68.6c0,0,1.3,1.6,2.1,2.3c0.8,0.7,1.3,3.3,1.3,3.3s-1.9-1.6-2.2-2.3C82,71.1,81.1,68.6,81.1,68.6z"/>
	<path class="st6" d="M11.5,62.4c0-27,22-48.9,48.9-48.9c27,0,48.9,22,48.9,48.9c0,27-22,48.9-48.9,48.9
		C33.4,111.3,11.5,89.4,11.5,62.4z M10.2,62.4c0,27.7,22.5,50.2,50.2,50.2c27.7,0,50.2-22.5,50.2-50.2c0-27.7-22.5-50.2-50.2-50.2
		C32.7,12.2,10.2,34.7,10.2,62.4z"/>
	<path class="st0" d="M61.4,60.9c2.4,0.5,3.5,3.8,3.7,4.8l0.1,0.6c0,0,0.7,2.2,0.9,3.1c-0.3,0.3-0.8,0.7-1.1,1.4
		c-0.4,1-1.2,3.6-1.2,3.7l-0.3,1.1l3.7-1.3c0.3-0.1,0.7-0.4,1-0.6c0.3-0.2,0.6-0.5,0.8-0.5c0.3,0,0.7,0.3,0.8,0.6
		c0.1,0.5,1,3,1.4,3.9c0.4,0.8,0.7,2.1,0.7,2.1l0.1,0.4h5.7c2,0,2.8,1.2,2.9,1.2c0,0,4.5,5.4,4.5,5.4l0.9-0.7l-4.5-5.4
		c0,0-1.2-1.7-3.8-1.7c0,0-4.1,0-4.8,0c-0.1-0.5-0.4-1.3-0.7-2c-0.4-0.8-1.2-3.1-1.4-3.7c-0.2-0.8-1.1-1.5-2-1.4
		c-0.5,0.1-0.9,0.4-1.3,0.7c-0.3,0.2-0.5,0.4-0.7,0.4c0,0-0.8,0.3-1.6,0.5c0.3-0.8,0.6-2,0.9-2.6c0.3-0.8,0.9-1.1,0.9-1.1l0.4-0.2
		l-0.1-0.5l-1-3.5l-0.1-0.4c-0.2-1.1-1.2-4.1-3.9-5.5"/>
	<path class="st0" d="M43.9,100.1c0,0,0,0.1,0,0.4c0,0,0.2-0.4,0.2-0.4C44.1,100,44,100.1,43.9,100.1z M43,100.5
		c-0.2-0.1-0.4,0.2-0.1,0.3C43.1,100.9,43.2,100.6,43,100.5z M44.8,99.2l0.3,0.3c-0.2,0.2-0.4,0.3-0.4,0.3c0,0,0,0.1-0.1,0.2
		l-0.6,1.4l-0.4-0.2c0.1-0.3,0.3-1.4-0.1-1.5c-0.2-0.1-0.3,0.1-0.4,0.4c0,0,0.1,0,0.2,0.1c0.3,0.1,0.3,0.4,0.2,0.6
		c-0.1,0.2-0.3,0.4-0.6,0.3c-0.3-0.1-0.3-0.4-0.3-0.6c0.1-0.2,0.2-0.5,0.2-0.5c0.2-0.3,0.5-0.5,0.8-0.4c0.2,0.1,0.3,0.2,0.3,0.2
		c0.1,0.1,0.4,0,0.4,0c0,0,0-0.2-0.4-0.4c-0.3-0.1-0.6,0-0.8,0.1L43,99.1c0.2-0.1,0.6-0.2,1,0c0.4,0.2,0.6,0.5,0.6,0.5
		C44.6,99.5,44.7,99.3,44.8,99.2z"/>
	<path class="st0" d="M45.8,100.9c-0.2-0.1-0.3,0.3-0.1,0.3C45.9,101.3,46,100.9,45.8,100.9z M46.1,102.4c-0.2-0.1-0.3-0.2-0.3-0.5
		l0-0.5c0,0-0.1,0-0.3,0c-0.6-0.2-0.3-1,0.3-0.9c0.2,0.1,0.3,0.3,0.3,0.5c0,0.1-0.1,0.9-0.1,0.9c0,0.1,0,0.1,0.1,0l0.4-1.1
		c0.1-0.3-0.1-0.5-0.3-0.6c-0.3-0.1-0.6,0-0.8,0.1l-0.2-0.3c0.2-0.1,0.5-0.3,1.1-0.2c0.5,0.2,0.8,0.6,0.6,1l-0.4,1
		C46.5,102.5,46.2,102.4,46.1,102.4z"/>
	<path class="st0" d="M48.3,101.7c-0.2-0.1-0.3,0.3-0.1,0.3C48.4,102.1,48.5,101.7,48.3,101.7z M48.7,103.2
		c-0.2-0.1-0.3-0.2-0.3-0.4v-0.5c0,0-0.1,0.1-0.2,0c-0.6-0.2-0.3-1,0.2-0.9c0.2,0.1,0.4,0.2,0.4,0.4c0,0.1,0,0.9,0,0.9
		c0,0.1,0,0.1,0.1,0l0.3-1.1c0.1-0.3-0.1-0.5-0.4-0.6c-0.3-0.1-0.6,0-0.8,0.2l-0.2-0.2c0.2-0.1,0.5-0.4,1.1-0.2
		c0.5,0.1,0.8,0.5,0.7,1l-0.3,1.1C49.1,103.2,48.8,103.2,48.7,103.2z"/>
	<path class="st0" d="M52,103.3c-0.2,0-0.3,0.3-0.1,0.3C52.2,103.7,52.2,103.4,52,103.3z M51.5,103.4l0.4-1.8l0.4,0.1L52,103
		c0,0,0,0,0.1,0c0.3,0.1,0.4,0.3,0.3,0.5c0,0.2-0.3,0.4-0.5,0.4C51.6,103.8,51.5,103.6,51.5,103.4z"/>
	<path class="st0" d="M54.1,103.7c-0.2,0-0.3,0.3-0.1,0.4C54.3,104.1,54.3,103.8,54.1,103.7z M54.2,103.5c0,0,0.1-0.7,0.1-0.7
		c0.1-0.3-0.2-0.5-0.4-0.6c-0.4-0.1-0.6,0.2-0.7,0.3l-0.2-0.3c0.2-0.2,0.5-0.4,1-0.3c0.6,0.1,0.9,0.5,0.8,0.9l-0.2,1.1
		c0,0.3-0.3,0.4-0.5,0.4c-0.3-0.1-0.4-0.3-0.4-0.6C53.7,103.6,53.9,103.4,54.2,103.5C54.2,103.5,54.2,103.5,54.2,103.5z"/>
	<path class="st0" d="M57.8,103.3c-0.2,0-0.3,0.3,0,0.3C58,103.7,58,103.4,57.8,103.3z M57.6,104.1c0,0.2,0,0.2,0.2,0.2l0.6,0
		c0.2,0,0.2,0,0.2-0.2l0.1-1c0-0.4-0.2-0.5-0.6-0.5c-0.3,0-0.5,0.1-0.7,0.3l-0.2-0.2c0.1-0.2,0.4-0.4,0.9-0.4c0.6,0,1,0.4,0.9,0.8
		l-0.1,1.1c0,0.4-0.1,0.4-0.5,0.4l-0.8,0c-0.4,0-0.5-0.1-0.5-0.5l0-0.7c0-0.3,0.2-0.5,0.5-0.4c0.6,0,0.5,0.9-0.1,0.9
		c0,0-0.1,0-0.1,0V104.1z"/>
	<path class="st0" d="M60.1,104.3c0,0.2,0.1,0.2,0.1,0.2c0,0,0.1,0,0.1-0.1V104C60.2,104,60.1,104.1,60.1,104.3z M60.3,102.7
		c-0.2,0-0.2,0.4,0,0.4C60.5,103.1,60.5,102.7,60.3,102.7z M61.9,102.5v2.3h-0.4c-0.1-0.2-0.4-0.7-0.8-0.7v0.4
		c0,0.3-0.2,0.4-0.4,0.4c-0.3,0-0.5-0.2-0.5-0.5c0-0.3,0.2-0.6,0.5-0.6v-0.4c0,0,0,0-0.1,0c-0.6,0-0.6-0.9,0-0.9
		c0.2,0,0.4,0.2,0.4,0.4v0.9c0.6,0.1,0.8,0.4,0.8,0.4v-1.7H61.9z"/>
	<path class="st0" d="M63.7,103.2c-0.2,0-0.2,0.4,0,0.4C63.9,103.5,63.9,103.2,63.7,103.2z M64.4,104.7l-0.1-1.6
		c0-0.3-0.1-0.3-0.2-0.4l-0.3,0.1c0,0-0.4-0.1-0.4-0.1c-0.5,0.3-0.4,0.7-0.1,1.2c0.1,0.2,0.1,0.4,0.1,0.4l0.3-0.4
		c-0.2,0-0.4-0.2-0.4-0.4c0-0.2,0.1-0.5,0.4-0.5c0.3,0,0.5,0.2,0.5,0.4c0,0.1,0,0.3-0.1,0.4l-0.6,1l-0.3,0c0-0.2,0-0.4-0.1-0.5
		c-0.1-0.2-0.4-0.5-0.4-0.9c0-0.4,0.4-0.8,0.6-0.9l0.4,0.1l0.3-0.2c0.5,0.2,0.6,0.4,0.6,0.7l0.1,1.6L64.4,104.7z"/>
	<path class="st0" d="M66,102.1c0.6-0.1,0.8,0.1,0.9,0.6l0.2,1.6l-0.4,0l-0.2-1.6c0-0.3-0.3-0.4-0.5-0.3c-0.3,0-0.4,0.2-0.4,0.5
		l-0.3-0.1C65.3,102.6,65.4,102.2,66,102.1z"/>
	<path class="st0" d="M69.7,103c-0.2,0.1-0.1,0.4,0.1,0.4C70,103.3,70,102.9,69.7,103z M69.7,102.7c0,0-0.1-0.7-0.2-0.7
		c-0.1-0.3-0.3-0.4-0.6-0.3c-0.4,0.1-0.5,0.4-0.6,0.5l-0.3-0.1c0.1-0.2,0.3-0.6,0.8-0.7c0.6-0.1,1,0.1,1.1,0.6l0.3,1.1
		c0.1,0.2-0.1,0.5-0.3,0.6c-0.3,0.1-0.5-0.1-0.5-0.4C69.3,103,69.4,102.8,69.7,102.7C69.7,102.7,69.7,102.7,69.7,102.7z"/>
	<path class="st0" d="M71.2,100.8c0.6-0.1,0.8,0,0.9,0.4l0.5,1.6l-0.4,0.1l-0.5-1.6c-0.1-0.3-0.3-0.3-0.5-0.2
		c-0.3,0.1-0.3,0.3-0.3,0.5h-0.3C70.5,101.4,70.6,100.9,71.2,100.8z"/>
	<path class="st0" d="M73.6,101.1c-0.2,0.1-0.1,0.4,0.1,0.3C73.9,101.4,73.8,101,73.6,101.1z M74.8,102.1c-0.2,0.1-0.4,0-0.5-0.2
		l-0.3-0.4c0,0,0,0.1-0.2,0.1c-0.6,0.2-0.9-0.6-0.3-0.8c0.2-0.1,0.4,0,0.5,0.2c0,0,0.6,0.8,0.6,0.8c0.1,0.1,0.1,0.1,0.1-0.1
		l-0.4-1.1c-0.1-0.3-0.4-0.3-0.6-0.2c-0.3,0.1-0.5,0.4-0.5,0.6l-0.3-0.1c0-0.2,0.2-0.6,0.7-0.8c0.5-0.2,0.9-0.1,1.1,0.4l0.4,1
		C75.1,101.9,74.9,102,74.8,102.1z"/>
	<path class="st0" d="M75.6,99.1c0.5-0.2,0.8-0.1,1,0.3l0.7,1.5l-0.3,0.2l-0.7-1.5c-0.1-0.3-0.3-0.3-0.5-0.2
		c-0.2,0.1-0.3,0.3-0.3,0.6l-0.3,0.1C75.1,99.9,75.1,99.4,75.6,99.1z"/>
	<path class="st0" d="M46.2,102.9c0,0.1-0.1,0.2-0.2,0.2c-0.1,0-0.2-0.1-0.2-0.2c0-0.1,0.1-0.2,0.2-0.2
		C46.1,102.7,46.2,102.8,46.2,102.9z"/>
	<path class="st0" d="M49.9,100.7c-0.1,0-0.2-0.1-0.2-0.2c0-0.1,0.1-0.2,0.2-0.2c0.1,0,0.2,0.1,0.2,0.2
		C50,100.6,50,100.7,49.9,100.7z M49.9,100.2c-0.2,0-0.4,0.2-0.4,0.4c0,0.2,0.2,0.3,0.4,0.3c0.2,0,0.4-0.2,0.4-0.3
		C50.2,100.3,50,100.2,49.9,100.2z"/>
	<path class="st0" d="M51.5,53.6L51.5,53.6c-2-1.6-2.7-3-2.7-4.3l0,0c0-2.5,2.7-4,2.7-4l0,0h0c0.1-0.1,0.3,0,0.4,0.1l0,0
		c0.1,0.1,0,0.3-0.1,0.4l0,0c0,0-0.6,0.4-1.2,1l0,0c-0.6,0.6-1.2,1.5-1.2,2.6l0,0c0,1,0.6,2.3,2.4,3.8l0,0c0.1,0,0.3,0.1,0.7,0.2
		l0,0c0.4,0.1,1,0.2,1.6,0.2l0,0c1.4,0,2.8-0.5,2.8-3.2l0,0c0-0.4,0-0.9-0.1-1.5l0,0c0-0.2,0.1-0.3,0.2-0.3l0,0
		c0.1,0,0.3,0.1,0.3,0.2l0,0c0.1,0.6,0.1,1.1,0.1,1.5l0,0c0,1.5-0.4,2.4-1.1,3l0,0C55.6,53.9,54.8,54,54,54l0,0
		C52.7,54,51.5,53.6,51.5,53.6L51.5,53.6z"/>
	<path class="st3" d="M59,44.8c0,0,0.6,2.4,3.5,2.2c0,0-1.3,1.9-3,0.8C57.5,46.6,59,44.8,59,44.8z"/>
	<path class="st3" d="M57.6,48.2c0.2,1.3,2.3,1.7,2.3,1.7s-0.6-1.3,1-0.7c1.6,0.6,2.7-0.7,2.7-0.7l0.3,0.4c-1.6,1.4-2.7,0.8-3.3,0.8
		c-0.6,0,0,0.8,0,0.8c-3.3,0.3-4.1-2.6-4.1-2.6s0.8,0.4,0.7-0.3c-0.1-0.6-1.3-1.1-0.3-3.4l0.5,0.4c0,0-0.5,1-0.3,1.6
		C57.5,46.9,58.5,48.1,57.6,48.2L57.6,48.2z"/>
	<path class="st0" d="M49,60.4c-0.3-0.5-0.4-1-0.4-1.4l0,0c0-1,0.4-1.7,0.4-1.7l0,0l0,0l0.4,0.2c0,0-0.3,0.7-0.3,1.5l0,0
		c0,0.4,0.1,0.8,0.3,1.2l0,0c0.2,0.4,0.6,0.6,1,0.6l0,0c0.7,0,1.4-0.5,1.5-2l0,0c0-0.4,0-0.8-0.1-1.2l0,0c0,0-1-3.1-1-6l0,0
		c0-1.7,0.3-3.4,1.6-4.3l0,0l0.3,0.4c-1,0.7-1.4,2.2-1.4,3.9l0,0c0,2.8,0.9,5.9,1,5.9l0,0c0.1,0.5,0.2,0.9,0.2,1.3l0,0
		c0,1.7-1,2.5-1.9,2.5l0,0C49.8,61.2,49.3,60.9,49,60.4L49,60.4z"/>
	<path class="st0" d="M53.8,54.3c0-2.6,1.1-5,1.1-5l0,0l0.5,0.2c0,0-1.1,2.3-1.1,4.8l0,0c0,2.8,1.3,5.8,7.4,5.9l0,0l0,0.5
		C55.4,60.7,53.7,57.3,53.8,54.3L53.8,54.3z"/>
	<path class="st0" d="M71.5,36.4c0,0,0.1-0.1,0.1-0.1l0,0c0.3-0.5,0.4-1.1,0.4-1.6l0,0c-0.1,0.1-0.1,0.2-0.2,0.3l0,0
		c0,0.4-0.1,0.6-0.2,0.9l0,0c-0.1,0.2-0.2,0.3-0.4,0.4l0,0C71.2,36.3,71.4,36.3,71.5,36.4L71.5,36.4z M68.5,36.6
		c0.6,0.1,1.1,0.3,1.6,0.5l0,0c0.2,0,0.4-0.1,0.5-0.1l0,0c-0.2-0.1-0.3-0.2-0.5-0.2l0,0c-0.9-0.4-1.7-0.5-2.4-0.6l0,0l0.2,0.7
		c0-0.1,0.1-0.2,0.2-0.2l0,0C68.3,36.6,68.4,36.6,68.5,36.6L68.5,36.6C68.5,36.6,68.5,36.6,68.5,36.6L68.5,36.6z M70.1,38.3
		c0.1,0,0.2,0,0.3,0l0,0c-0.1-0.1-0.2-0.1-0.3-0.2l0,0c-0.2,0-0.4-0.1-0.5-0.1l0,0c-0.2,0-0.3,0-0.5-0.1l0,0c-0.1,0-0.2-0.1-0.2-0.1
		l0,0c0,0.1,0,0.2,0,0.3l0,0C69.1,38.3,69.6,38.3,70.1,38.3L70.1,38.3z M54.9,38.6L54.9,38.6L54.9,38.6L54.9,38.6z M55.8,40.7
		c0,0.1,0,0.2,0.1,0.3l0,0c0,0,0,0,0.1,0l0,0c0.1,0,0.5-0.1,1-0.4l0,0c0,0,0,0,0,0l0,0c0-0.1,0.1-0.2,0.2-0.5l0,0
		c0.3-0.7,1.7-3.9,1.7-3.9c0.9-2,2.8-2.1,4.5-2.1l0,0c0.9,0,1.9,0.2,3,0.8l0,0l-0.2-0.7l-10.1-0.9c-0.1,0.4-0.4,1-0.6,1.7l0,0
		c-0.3,0.9-0.6,1.9-0.7,2.7l0,0c0.1,0,0.1-0.1,0.2-0.1l0,0c0.1,0,0.3,0,0.4,0.1l0,0c0,0,0.9,0.8,0.9,1.8l0,0c0,0.3-0.2,0.7-0.5,1
		l0,0C55.9,40.6,55.8,40.7,55.8,40.7L55.8,40.7z M73.4,41.2L73.4,41.2c-0.1-1.1-0.4-1.9-0.9-2.5l0,0c0,0.2-0.1,0.3-0.2,0.4l0,0
		C72.7,39.7,73.1,40.4,73.4,41.2L73.4,41.2z M77.8,55.5c0.1,0,0.3,0,0.4,0l0,0c-0.1,0-0.1-0.1-0.2-0.1l0,0c-0.7-0.6-1.3-1.7-1.8-3.1
		l0,0c-0.5-1.4-1-3.1-1.4-4.7l0,0c-0.2-0.6-0.3-1.3-0.5-1.9l0,0c0.1,0.6,0.1,1,0.1,1.1l0,0c0,0,0,0,0,0l0,0
		C74.5,50.3,76.2,53.4,77.8,55.5L77.8,55.5z M81.6,55.8c-0.1-0.1-0.1-0.2-0.2-0.2l0,0C81.5,55.6,81.5,55.7,81.6,55.8L81.6,55.8
		C81.5,55.7,81.5,55.8,81.6,55.8L81.6,55.8C81.6,55.8,81.6,55.8,81.6,55.8L81.6,55.8z M81.9,58.8c0.2-0.4,0.3-0.8,0.3-1.2l0,0
		c0-0.2,0-0.4-0.1-0.6l0,0c-0.1,0.4-0.4,0.6-0.6,0.8l0,0c0,0-0.1,0-0.1,0.1l0,0C81.5,58.1,81.7,58.4,81.9,58.8L81.9,58.8z
		 M74.4,55.2l3.8,3.7c0.1-0.2,0.2-0.5,0.4-1l0,0c-0.2-0.1-0.4-0.2-0.7-0.4l0,0c-0.5-0.3-1.1-0.7-1.4-1.3l0,0c-0.1-0.1-0.1-0.3,0-0.4
		l0,0c0.1-0.1,0.2-0.2,0.3-0.2l0,0c-1.5-2.2-3.1-5.2-3.3-8.8l0,0c0,0,0,0,0-0.1l0,0c0-0.3,0-2.5-0.7-4.7l0,0
		c-0.3-1.1-0.8-2.1-1.5-2.9l0,0c-0.3,0-0.7,0.1-1.2,0.1l0,0c-0.5,0-1.3-0.2-1.7-0.3l0,0.1c-0.1,0.8-3.1,4.7-3.1,4.7s-0.8,1-1.7,1.7
		l0,0c-0.7,0.5-1.5,1-2.3,1.2l0,0c0.5,0.4,1,0.7,1.2,0.9l0,0c0,0,0,0,0,0l0,0C64.2,48.3,70.8,51.4,74.4,55.2L74.4,55.2z M80.2,58.3
		L80.2,58.3c0.5,0.6,0.7,1.3,0.8,1.9l0,0l0.1-0.1c0.1-0.1,0.2-0.2,0.3-0.4l0,0c-0.8-1.4-1.2-2.1-1.5-2.6l0,0
		c-0.1-0.2-0.2-0.3-0.3-0.4l0,0c-0.3-0.1-0.5-0.2-0.5-0.2l0,0l-0.1,0c0,0-0.2-0.1-0.5-0.1l0,0c0.3,0.4,0.6,0.7,0.8,0.9l0,0
		c0,0,0.1,0.1,0.1,0.1l0,0C79.9,58,80.2,58.3,80.2,58.3L80.2,58.3z M66.1,53.6c1.5,0.7,2.7,1.4,2.7,1.4l0,0l0.2,0.1
		c0.7,1,2.8,2.6,4.8,3.9l0,0c1.9,1.3,3.7,2.3,3.7,2.4l0,0c0.7,0.5,1.3,0.6,1.7,0.6l0,0c0.5,0,0.9-0.2,1.2-0.5l0,0
		c0-1-0.2-1.9-0.7-2.6l0,0c-0.1,0-0.2-0.1-0.3-0.3l0,0c-0.4,1.1-0.9,1.3-1.1,1.4l0,0c-0.1,0-0.3,0-0.4-0.1l0,0l-4.1-4
		c-1.9-2.1-4.9-4-7.4-5.4l0,0c-2-1.1-3.7-1.9-4.3-2.2l0,0c-0.1,0-0.1,0-0.2-0.1l0,0c0,0,0,0,0,0l0,0l0,0c0,0,0,0,0,0l0,0
		c-0.1-0.1-0.2-0.2-0.2-0.3l0,0c-0.2-0.2-0.5-0.4-0.8-0.6l0,0c-0.6-0.4-1.2-0.8-1.2-0.8l0,0c-0.2-0.1-0.3-0.4-0.1-0.6l0,0
		c0.1-0.2,0.4-0.3,0.6-0.2l0,0c0.1,0.1,0.3,0.1,0.5,0.1l0,0c0.7,0,1.8-0.6,2.6-1.2l0,0c0.8-0.5,1.4-1.1,1.5-1.2l0,0
		c0.6-0.6,1.5-0.9,2.1-1.1l0,0l0,0c-0.1-0.1-0.1-0.3-0.1-0.4l0,0c0.1-0.1,0.2-0.2,0.3-0.3l0,0l0,0c0,0,0,0,0.1-0.1l0,0
		c0.1-0.1,0.2-0.3,0.2-0.5l0,0c0.2-0.4,0.3-1,0.5-1.6l0,0c0.1-0.3,0.1-0.6,0.2-0.8l0,0c-0.3-0.3-0.5-0.6-0.5-1l0,0l-0.4-1.5
		c0,0,0,0,0,0l0,0c-0.1,0-0.2,0-0.3-0.1l0,0c-1.2-0.8-2.2-1-3.1-1l0,0c-1.4,0-2.3,0.7-2.6,1l0,0c-0.1,0.1-0.2,0.2-0.2,0.2l0,0
		c-0.1,0.2-0.4,0.2-0.5,0.1l0,0l-1-0.4c-0.2,1-0.7,1.7-0.9,2.4c0,0.2,0.1,0.9,0.1,1c-0.3,1.4-0.4,1.6-0.6,1.9l0,0
		c-0.1,0.1-0.2,0.2-0.4,0.3l0,0c-0.6,0.3-1,0.5-1.4,0.5l0,0c-0.4,0-0.7-0.2-0.9-0.5l0,0c-0.2-0.3-0.2-0.5-0.2-0.8l0,0
		c0-0.4,0.1-0.6,0.1-0.7l0,0c0-0.1,0.1-0.2,0.2-0.3l0,0c0.2-0.1,0.2-0.1,0.2-0.2l0,0c0-0.2-0.1-0.5-0.3-0.7l0,0l-0.2,0.3
		c-0.1,0.1-0.2,0.2-0.3,0.2l0,0c-0.1,0-0.3,0-0.4-0.1l0,0c-0.3-0.3-0.3-0.7-0.3-1l0,0c0-1.9,1.5-5.5,1.5-5.6l0,0
		c0.1-0.2,0.3-0.3,0.5-0.3l0,0l10.8,1c0.2,0,0.4,0.2,0.4,0.3l0,0l0.4,1.6c0.6,0.1,1.4,0.2,2.3,0.5l0,0c0,0,0,0,0,0l0,0
		c-0.2-0.3-0.4-0.6-0.4-0.6l0,0c-0.1-0.1-0.1-0.3,0-0.5l0,0c0,0,0-0.1,0-0.1l0,0c0-0.1-0.2-0.5-0.4-0.7l0,0
		c-0.2-0.2-0.4-0.4-0.5-0.4l0,0c-3.7-3.2-9.8-3.8-13.2-3.8l0,0c-1,0-1.8,0.1-2.1,0.1l0,0c-1.5,2.5-2.3,5.7-2.7,8.3l0,0
		c-0.3,1.6-0.4,3-0.4,3.8l0,0c0.2-0.2,0.5-0.2,0.7,0l0,0c0.2,0.2,0.2,0.5,0,0.6l0,0c0,0-0.5,0.6-1.1,1.5l0,0
		c-0.6,0.9-1.2,2.3-1.4,3.7l0,0c0,0.1-0.1,0.2-0.2,0.3l0,0c0,0-0.1,0.1-0.2,0.2l0,0c-0.1,0.1-0.3,0.4-0.5,0.6l0,0
		c-0.4,0.5-0.8,1.3-0.8,2.2l0,0c0,1,0.5,2.2,2.3,3.5l0,0c0.1,0.1,0.1,0.2,0.2,0.3l0,0c0,0,0.2,0.9,0.7,2.1l0,0
		c0.5,1.2,1.3,2.7,2.5,3.9l0,0c0,0,0.1,0.1,0.2,0.2l0,0c0.2,0.1,0.5,0.2,0.8,0.4l0,0c0.7,0.3,1.7,0.6,2.8,0.6l0,0
		c1.4,0,3.1-0.4,5-1.8l0,0c-0.4-0.3-1-0.8-1.8-1.4l0,0c-0.7-0.6-1-1.6-1.2-2.5l0,0c-0.2-0.9-0.3-1.7-0.3-1.7l0,0v-0.1
		c0.1-0.9,0.7-1.5,1.3-1.8l0,0c0.6-0.3,1.3-0.4,1.8-0.4l0,0c0.4,0,0.7,0,0.9,0.1l0,0c0,0,0.1,0,0.1,0l0,0
		C62.9,52.3,64.6,52.9,66.1,53.6L66.1,53.6z M81.7,75.2c2.3,1.8,2.8,3.5,2.8,4.7l0,0c0,0.2,0,0.5-0.1,0.7l0,0
		c0.1-0.1,0.2-0.2,0.2-0.3l0,0c0.2-0.3,0.4-0.9,0.6-1.4l0,0c0.3-1,0.4-2.1,0.4-2.1l0,0c0-0.2,0.1-0.3,0.3-0.4l0,0
		c0.2-0.1,0.3,0,0.5,0.1l0,0l0.8,0.7c0-1.5,0.5-2.7,0.7-3.1l0,0c0-0.3,0-0.6,0-0.9l0,0c0-4.2-0.8-4.7-2.9-6.4l0,0
		c-2.1-1.7-2.5-5-2.6-5.7l0,0c-0.1-0.2-0.2-0.4-0.4-0.6l0,0c0,0,0,0,0,0.1l0,0c-0.1,0.2-0.2,0.6-0.6,1.1l0,0c0,0.1-0.1,0.1-0.1,0.2
		l0,0c-0.1,3.2-1.8,6.6-2.1,7.1l0,0c-0.2,1-0.3,1.8-0.3,2.5l0,0c0,1.8,0.6,2.6,1.1,3l0,0c0.5,0.4,1.2,0.5,1.4,0.5l0,0
		c0,0,0.1,0,0.1,0l0,0c0,0,0,0,0,0l0,0C81.5,75,81.6,75.1,81.7,75.2L81.7,75.2z M83.6,81.6c-0.1,0-0.2-0.1-0.3-0.3l0,0
		c-0.1-0.1,0-0.3,0-0.4l0,0c0,0,0,0,0,0l0,0c0,0,0.1-0.1,0.1-0.2l0,0c0.1-0.2,0.1-0.5,0.1-0.8l0,0c0-0.9-0.4-2.3-2.3-3.9l0,0
		c-0.4,0-1.1-0.1-1.9-0.7l0,0c-0.8-0.6-1.5-1.8-1.5-3.8l0,0c0-0.8,0.1-1.7,0.3-2.8l0,0l0-0.1c0,0,0.5-0.9,1-2.3l0,0
		c0.4-1.1,0.8-2.4,0.9-3.7l0,0c-0.3,0.1-0.7,0.2-1.1,0.2l0,0c-0.6,0-1.4-0.2-2.2-0.7l0,0c0,0-1.8-1-3.7-2.4l0,0
		c-1.9-1.3-4-2.8-4.9-4.1l0,0c-0.3-0.2-1.4-0.7-2.6-1.3l0,0c-1.4-0.7-3.1-1.3-3.9-1.3l0,0c0,0,0,0-0.1,0l0,0h-0.1
		c0,0-0.3-0.1-0.8-0.1l0,0c-0.5,0-1,0.1-1.4,0.3l0,0c-0.4,0.2-0.7,0.5-0.8,1l0,0c0,0.2,0.1,0.8,0.3,1.5l0,0c0.2,0.8,0.6,1.8,0.9,2
		l0,0c1.5,1.3,2.3,1.8,2.3,1.8l0,0c0.1,0.1,0.2,0.2,0.2,0.4l0,0c0,0.1-0.1,0.3-0.2,0.4l0,0c-2.2,1.8-4.3,2.4-6.1,2.4l0,0
		c-2.6,0-4.4-1.3-4.4-1.3l0,0l-0.1,0c-2.4-2.4-3.2-5.5-3.4-6.3l0,0c-1.8-1.4-2.5-2.9-2.5-4.2l0,0c0-1.9,1.3-3.2,1.7-3.6l0,0
		c0.3-1.9,1.2-3.4,1.9-4.4l0,0c-0.1-0.1-0.1-0.2-0.1-0.3l0,0c0,0,0-8.3,3.4-13.7l0,0c0.1-0.1,0.2-0.2,0.3-0.2l0,0c0,0,1-0.1,2.4-0.1
		l0,0c3.4,0,9.7,0.5,13.8,4l0,0c0,0.1,1.1,0.7,1.2,1.9l0,0c0,0.1,0,0.2,0,0.3l0,0c0,0,0.1,0.1,0.1,0.2l0,0c0.1,0.2,0.3,0.3,0.4,0.4
		l0,0c0-0.1,0.1-0.3,0.1-0.5l0,0l0-0.2c0,0,0.2-0.3,0.4-0.6l0,0c0.2-0.3,0.5-0.7,1-0.8l0,0c0.2,0,0.5,0.1,0.5,0.4l0,0
		c0,0,0.1,0.4,0.1,0.9l0,0c0,0.6-0.1,1.4-0.5,2.2l0,0c0,0.1-0.1,0.2-0.1,0.2l0,0c1.1,0.9,1.9,2.2,2.1,4.1l0,0c0,0.2,0.3,1.8,0.8,3.9
		l0,0c0.5,2.2,1.2,4.9,2,7l0,0c0.5,1.3,1.3,2.2,1.8,2.5l0.9,0.4c0.7,0.5,0.5,0.2,0.9,0.6l0.1,0.4c0.2,0.1-0.2,0.2,0,0.3l0,0
		c-0.1-0.3-0.4-1-0.5-2l0,0c0-0.2,0.1-0.3,0.2-0.4l0,0c0.2-0.1,0.3-0.1,0.5,0l0,0c0,0,2.1,1.5,2.2,3.9l0,0c0,0.7-0.2,1.4-0.6,2.1
		l0,0c0.2,0.3,0.4,0.6,0.6,1l0,0l0.1,0.2c0,0,0.1,0.9,0.4,2l0,0c0.3,1.1,0.9,2.4,1.9,3.1l0,0c2.2,1.7,3.4,2.9,3.3,7.1l0,0
		c0,0.3,0,0.7,0,1l0,0l0,0.2c0,0-0.2,0.3-0.3,0.9l0,0c-0.2,0.5-0.3,1.3-0.3,2.1l0,0c0,0.3,0,0.5,0.1,0.8l0,0c0,0.2-0.1,0.4-0.2,0.5
		l0,0c-0.2,0.1-0.4,0.1-0.5-0.1l0,0l-1-0.9c-0.1,0.8-0.4,2.1-1,3l0,0c-0.3,0.5-0.8,0.9-1.4,0.9l0,0C83.9,81.6,83.7,81.6,83.6,81.6
		L83.6,81.6z"/>
	<path class="st0" d="M61.2,43.6L61.2,43.6L61.2,43.6c-0.1,0-0.5-0.1-0.5-0.9l0,0c-0.1,0-0.2-0.1-0.3-0.3l0,0c0-0.1,0-0.1,0.1-0.2
		l0,0c0,0,0.1-0.1,0.3-0.1l0,0c0.2,0,0.4,0.1,0.5,0.5l0,0c0,0.1,0,0.1-0.1,0.1l0,0c-0.1,0-0.1,0-0.1-0.1l0,0
		c-0.1-0.3-0.2-0.4-0.3-0.4l0,0c0,0-0.1,0-0.1,0l0,0c0,0-0.1,0-0.1,0l0,0c0,0,0,0,0,0.1l0,0c0,0,0,0,0.1,0.1l0,0c0.1,0,0.1,0,0.1,0
		l0,0c0.1,0,0.1,0.1,0.1,0.1l0,0c0,0,0,0,0,0l0,0c0,0.7,0.3,0.7,0.3,0.7v0h0c0,0,0,0,0,0l0,0c0.1,0,0.3-0.3,0.3-0.3l0,0
		c0.2-0.3,0.9-1.6,0.9-1.6v0c0.3-0.6,0.8-0.7,1.1-0.7l0,0c0.1,0,0.2,0,0.2,0l0,0c1.3,0.1,1.5,1,1.5,1.4l0,0c0,0.1,0,0.2,0,0.2v0l0,0
		c0,0.1-0.1,0.1-0.1,0.1l0,0c-0.1,0-0.1-0.1-0.1-0.1l0,0c0,0,0-0.1,0-0.2l0,0c0-0.4-0.1-1.1-1.3-1.2l0,0c0,0-0.1,0-0.2,0l0,0
		c-0.2,0-0.6,0.1-0.8,0.5l0,0c0,0-0.7,1.2-1,1.6l0,0C61.9,43.2,61.7,43.6,61.2,43.6L61.2,43.6C61.3,43.6,61.3,43.6,61.2,43.6
		L61.2,43.6z"/>
	<path class="st0" d="M62.9,40.3c-0.1,0-0.1-0.1-0.1-0.1l0,0c0.1-0.2,0.1-0.3,0.1-0.4l0,0c0-0.6-0.6-0.9-0.6-0.9h0
		c-1.3-0.4-1.4-1.1-1.4-1.2l0,0c0-0.1,0.1-0.1,0.1-0.1l0,0c0.1,0,0.1,0,0.2,0.1l0,0c0,0,0,0,0,0.1l0,0c0,0,0,0.6,1.2,1l0,0
		c0,0,0.8,0.3,0.8,1.1l0,0c0,0.1,0,0.3-0.1,0.5l0,0C63.1,40.3,63,40.3,62.9,40.3L62.9,40.3C63,40.3,62.9,40.3,62.9,40.3L62.9,40.3z"
		/>
	<path class="st0" d="M61.8,41.1c0,0,0.8-1-0.7-1.7c0,0-0.3-0.1-0.4-0.5c0,0-0.2,0.6,0.2,1C60.9,40,61.9,40.6,61.8,41.1"/>
	<path class="st0" d="M63.2,42.1c0,0,0.7-0.6,1.5,0.5c0,0,0.2,0.2,0.4,0.2c0,0-0.8,0.3-1.2-0.2c-0.5-0.5,0,0,0,0
		S63.6,42.2,63.2,42.1z"/>
	<path class="st0" d="M61.6,40.5c-0.1,0-0.1,0-0.1-0.1c0,0,0-0.1,0.1-0.1c0,0,0.1,0,0.1,0.1C61.7,40.5,61.6,40.5,61.6,40.5z"/>
	<path class="st0" d="M59.9,45.6c0.2,0,0.3,0.1,0.5,0.1l0,0c1.1,0,2.2-0.8,3.1-1.6l0,0c0.9-0.8,1.4-1.6,1.4-1.6l0,0
		c0.6-0.8,0.8-1.4,0.8-2l0,0c0-0.7-0.3-1.2-0.5-1.6l0,0c-0.3-0.4-0.5-0.6-0.5-0.6v0c-1-0.8-1.8-1.1-2.5-1.1l0,0
		c-0.7,0-1.3,0.3-1.7,0.6l0,0c-0.4,0.3-0.6,0.6-0.6,0.6l0,0c-0.1,0.1-0.2,0.1-0.3,0.1l0,0c-0.1,0-0.2-0.1-0.1-0.3l0,0
		c0-0.2,0-0.4,0-0.5l0,0c0-0.4-0.1-0.3-0.1-0.3l0,0c-0.1,0-0.2,0-0.3,0.1l0,0c-0.4,0.5-0.5,1-0.5,1.4l0,0c0,0.3,0.1,0.5,0.1,0.7l0,0
		c0.1,0.2,0.1,0.3,0.1,0.3l0,0c0,0.1,0,0.2,0,0.2l0,0c-0.7,1.1-0.9,2-0.9,2.7l0,0c0,0.6,0.2,1.1,0.3,1.4l0,0
		c0.2,0.3,0.3,0.4,0.3,0.4l0,0l-0.2,0.2l-0.2,0l0.2,0l0.2-0.2c0,0,0.1,0.1,0.1,0.2l0,0c0,0.8,0.5,0.8,0.9,0.8l0,0c0.2,0,0.4,0,0.4,0
		l0,0H59.9L59.9,45.6z M59.9,46c-0.1,0-0.2,0-0.4,0l0,0c-0.5,0-1.3-0.2-1.4-1.2l0,0c-0.2-0.2-0.7-0.9-0.7-2.1l0,0
		c0-0.8,0.2-1.7,0.9-2.9l0,0c-0.1-0.2-0.2-0.6-0.3-1.1l0,0c0-0.5,0.2-1.1,0.7-1.7l0,0l0.1,0c0,0,0.2-0.2,0.5-0.2l0,0
		c0.1,0,0.3,0,0.4,0.2l0,0c0.1,0.1,0.1,0.3,0.2,0.5l0,0c0.5-0.4,1.2-0.9,2.3-0.9l0,0c0.8,0,1.8,0.3,2.8,1.2l0,0c0,0,1.2,1,1.2,2.5
		l0,0c0,0.7-0.2,1.5-0.9,2.3l0,0c0,0-2.3,3.3-4.9,3.3l0,0C60.3,46.1,60.1,46.1,59.9,46L59.9,46z"/>
	<path class="st0" d="M59.7,42.5c0,0-0.1,0.2,0.3,0.6c0,0,0.5,0.2,0.4,0.7c0,0,0.3,0,0.7,0.3c0,0,0.2,0.1,0.5,0.2
		C61.6,44.2,59.8,44.6,59.7,42.5z"/>
	<path class="st0" d="M56.7,49.1c1.1,0,2.2-0.5,2.9-0.9l0,0c0.4-0.3,0.8-0.6,1-0.7l0,0L59,46.3c-0.4,0.2-1.4,0.6-2.4,0.6l0,0
		c-0.8,0-1.6-0.3-2.2-1.1l0,0c-0.4-0.7-0.6-1.3-0.6-1.8l0,0c0-0.8,0.3-1.4,0.6-1.7l0,0c-0.4-0.3-0.5-0.8-0.5-1.2l0,0
		c0-0.2,0-0.4,0.1-0.6l0,0c-0.2,0.1-0.4,0.2-0.5,0.3l0,0C53.2,40.8,53,41,53,41l0,0c-0.9,1.2-1.2,2.3-1.2,3.3l0,0
		c0,0.8,0.2,1.4,0.4,1.9l0,0c0.2,0.4,0.3,0.7,0.3,0.7l0,0C54,48.6,55.5,49.1,56.7,49.1L56.7,49.1z M52.1,47.1c0,0-0.8-1.2-0.8-2.8
		l0,0c0-1,0.3-2.3,1.3-3.6l0,0c0,0,0.8-0.8,1.6-0.9l0,0c0.1,0,0.2,0,0.2,0.1l0,0c0,0.1,0.1,0.1,0,0.2l0,0c0,0-0.2,0.4-0.2,0.9l0,0
		c0,0.4,0.1,0.8,0.5,1l0,0l-0.1,0.2l0.1-0.2c0.1,0,0.1,0.1,0.1,0.2l0,0c0,0.1,0,0.1-0.1,0.2l0,0c0,0-0.2,0.1-0.3,0.4l0,0
		c-0.2,0.3-0.3,0.7-0.3,1.2l0,0c0,0.4,0.1,1,0.5,1.6l0,0c0.4,0.7,1.1,0.9,1.8,0.9l0,0c1.1,0,2.3-0.6,2.3-0.6l0,0c0.1,0,0.2,0,0.3,0
		l0,0l1.9,1.5c0.1,0,0.1,0.1,0.1,0.2l0,0c0,0.1,0,0.1,0,0.2l0,0c0,0-1.8,2-4.4,2l0,0h0l0,0C55.3,49.6,53.7,49,52.1,47.1L52.1,47.1z"
		/>
	<path class="st0" d="M50.1,55.3c-0.1,0-0.3,0-0.4,0l0,0c-0.9,0-1.6-0.5-1.6-0.5l0,0c-0.2-0.1-0.2-0.4-0.1-0.6l0,0
		c0.1-0.2,0.4-0.2,0.6-0.1l0,0c0,0,0.1,0.1,0.3,0.2l0,0c0.2,0.1,0.5,0.2,0.8,0.2l0,0c0.1,0,0.3,0,0.4-0.1l0,0c0.2-0.1,0.4,0,0.5,0.2
		l0,0c0,0,0.1,0.1,0.2,0.3l0,0c0.1,0.2,0.4,0.5,0.6,0.8l0,0c0.6,0.6,1.4,1.1,2.4,1.1l0,0c0.5,0,1.1-0.1,1.8-0.5l0,0
		c0,0,0.1-0.1,0.2-0.2l0,0c0.1-0.1,0.3-0.3,0.5-0.6l0,0c0.4-0.5,0.7-1.2,0.7-2l0,0c0-0.7-0.2-1.4-1-2.3l0,0c-0.2-0.2-0.1-0.4,0-0.6
		l0,0c0.2-0.1,0.4-0.1,0.6,0l0,0c0.9,1,1.2,2,1.2,2.8l0,0c0,2.1-1.7,3.3-1.8,3.4l0,0l-0.1,0c-0.8,0.4-1.5,0.6-2.2,0.6l0,0
		C51.8,57.7,50.6,56,50.1,55.3L50.1,55.3z"/>
	<path class="st0" d="M51,56.4c0,0-1.1-1.1-1.1-2.7l0,0c0-1.1,0.6-2.3,2.3-3.3l0,0c0.2-0.1,0.5,0,0.6,0.1l0,0c0.1,0.2,0,0.4-0.2,0.6
		l0,0c-1.6,0.9-1.9,1.8-1.9,2.6l0,0c0,0.9,0.5,1.6,0.8,2l0,0c0.1,0.1,0.1,0.2,0.1,0.2l0,0c0.2,0.2,0.1,0.4,0,0.6l0,0
		c-0.1,0.1-0.2,0.1-0.3,0.1l0,0C51.2,56.5,51.1,56.5,51,56.4L51,56.4z"/>
	<path class="st0" d="M59.7,42.6c0,0-0.6,0.8,0.2,1.7c0,0,1,0.8,1.7,0c0,0-1-0.1-1.3-0.4c-0.3-0.3-0.3-0.2-0.5-1.3"/>
	<path class="st0" d="M56.7,47.8c-2.4,0-3.5-1.9-3.6-2l0,0c-0.2-0.4-0.3-0.9-0.3-1.3l0,0c0-1.6,1.1-2.8,1.1-2.8l0,0l0,0
		c0.1-0.1,0.2-0.1,0.3,0l0,0c0.1,0.1,0.1,0.2,0,0.3l0,0c0,0-0.2,0.3-0.5,0.7l0,0c-0.3,0.5-0.5,1.1-0.5,1.8l0,0
		c0,0.4,0.1,0.7,0.2,1.1l0,0c0,0,0.3,0.4,0.8,0.9l0,0c0.5,0.4,1.3,0.9,2.4,0.9l0,0c0.8,0,1.7-0.2,2.8-0.9l0,0c0.1-0.1,0.2,0,0.3,0.1
		l0,0c0.1,0.1,0,0.2-0.1,0.3l0,0C58.6,47.5,57.6,47.8,56.7,47.8L56.7,47.8L56.7,47.8L56.7,47.8z"/>
	<path class="st0" d="M60.9,52.3c0.6-0.7,1-1.9,1.2-2.8l0,0c0.2-1,0.2-1.7,0.2-1.7l0,0l0.9,0c0,0-0.1,3.2-1.7,5.1l0,0L60.9,52.3
		L60.9,52.3z"/>
	<path class="st0" d="M64.2,52.8c0.5-0.6,0.7-1.4,0.8-2l0,0c0.1-0.6,0.1-1.1,0.1-1.1l0,0l0,0h0.7c0,0,0,2-1.1,3.5l0,0L64.2,52.8
		L64.2,52.8z"/>
	<path class="st0" d="M53.9,31.3c-0.1-0.3,0.1-0.5,0.4-0.5l0,0c0.2-0.1,0.5,0.1,0.5,0.3l0,0c0.3,1.3,1,1.2,1.1,1.2l0,0h0
		c0.3,0,0.5,0.2,0.5,0.5l0,0c0,0.2-0.2,0.5-0.5,0.5l0,0h0c0,0,0,0-0.1,0l0,0C55.5,33.2,54.2,33,53.9,31.3L53.9,31.3z"/>
	<path class="st0" d="M66.4,34.1c-0.2-0.1-0.3-0.4-0.1-0.6l0,0c0,0,0.7-1.1,1.9-1.2l0,0c0.1,0,0.2,0,0.3,0l0,0
		c0.2,0,0.4,0.3,0.4,0.5l0,0c0,0.2-0.3,0.4-0.5,0.4l0,0c0,0-0.1,0-0.1,0l0,0c-0.4,0-0.9,0.4-1.1,0.7l0,0C67.1,34,67.1,34,67.1,34v0
		c-0.1,0.1-0.2,0.2-0.4,0.2l0,0C66.6,34.2,66.5,34.2,66.4,34.1L66.4,34.1z"/>
	<path class="st0" d="M65.2,33.4c-0.1,0-0.2-0.2-0.1-0.3l0,0c0,0,0.5-1.4,1.7-1.4l0,0c0.1,0,0.2,0.1,0.2,0.2l0,0
		c0,0.1-0.1,0.2-0.2,0.2l0,0c-0.4,0-0.7,0.3-0.9,0.6l0,0c-0.2,0.3-0.4,0.6-0.4,0.6v0C65.5,33.4,65.4,33.4,65.2,33.4L65.2,33.4
		C65.3,33.4,65.3,33.4,65.2,33.4L65.2,33.4z"/>
	<path class="st0" d="M56.1,42.8c-0.8,0-1.4-0.5-1.4-0.5l0,0c-0.6-0.4-0.7-1-0.7-1.6l0,0c0-0.9,0.5-1.8,0.5-1.8l0,0
		c0.1-0.1,0.2-0.2,0.3-0.1l0,0c0.1,0.1,0.2,0.2,0.1,0.3l0,0c0,0-0.4,0.8-0.4,1.6l0,0c0,0.5,0.1,0.9,0.5,1.2l0,0c0,0,0.1,0.1,0.3,0.2
		l0,0c0.2,0.1,0.5,0.2,0.8,0.2l0,0c0.5,0,1.1-0.2,1.6-1l0,0c0.1-0.1,0.2-0.1,0.3-0.1l0,0c0.1,0.1,0.1,0.2,0.1,0.3l0,0
		C57.4,42.5,56.7,42.8,56.1,42.8L56.1,42.8C56.1,42.8,56.1,42.8,56.1,42.8L56.1,42.8z"/>
	<path class="st0" d="M65.4,43.5c0,0-0.6,0-0.5-0.4c0-0.1,0.4-0.6,0.4-0.8c0.1-0.3,0.4-0.3,0.5-0.7c0.3-1.9-0.5-5.6-5.5-4.3
		c-0.1,0-0.4,0.4-0.5,0.4c-0.3,0-0.5-0.6-0.8-0.6c-0.4,0.1,0-0.7,0.3-1.3c0.1-0.3,1.8-0.1,1.4,0c0,0,2.8-2.2,6.1,0
		c0,0,7.3-0.7,7.8,7c0,0,1.1,9.8,4.6,12.6l-1.9,0.2c0,0-2.3-1.5-4.7-14.9c0,0-2-3.9-3.9-3.5C68.7,37.4,68.3,42.5,65.4,43.5z"/>
	<path class="st3" d="M68.6,38.3c0,0,1.7,0.5,2.3,0.2c0,0,0.1-0.4-1.1-0.9c0,0,3.1,0.1,2.7-3.3c0,0-1-0.6-1.8,2.3
		c0,0-0.5,1.2-2.2,0.7L68.6,38.3z"/>
	<path class="st3" d="M58.7,71l-5.9,5.8l0.7,1.8l7.8-8.1C61.2,70.5,59.7,70.2,58.7,71z"/>
	<path class="st0" d="M73.3,59.2c0.7-0.5,1.2-1.1,1.6-1.5l0,0c0.3-0.4,0.5-0.7,0.5-0.7l0,0l0,0l0.8,0.4c0,0-0.7,1.3-2.3,2.5l0,0
		L73.3,59.2L73.3,59.2z"/>
	<path class="st3" d="M53.6,68.7l0.7-1.1c0,0,9.1-1.4,10.4-3.3c0,0,1.2,1.6,1.1,4.1c0,0-5.7-1.5-8.3,0.3
		C57.4,68.7,55.6,69.8,53.6,68.7z"/>
	<path class="st3" d="M43.3,76.1c0,0,3.8-0.7,4.8-3.7c0,0,3.5,4.1,3.6,5.5c0,0-2.2,4.2-9.3,3.1C42.4,81,44.3,78.8,43.3,76.1z"/>
	<path class="st3" d="M61.1,79.8c0,0,1.8,2.9,1,3.3c0,0,3.5-2.1,6.1-1.5c0,0-0.9-6.7-2.3-6.8c0,0-1.4-0.3-1.8,1L61.1,79.8z"/>
	<path class="st0" d="M76.2,60.8c0.7,0,1.2-0.7,1.4-1.2l0,0c0.1-0.1,0.1-0.2,0.1-0.2l0,0l0.9,0.3c0,0-0.2,0.5-0.5,1l0,0
		c-0.4,0.5-0.9,1.1-1.8,1.1l0,0V60.8L76.2,60.8z"/>
	<path class="st3" d="M77.5,55.9c0,0,3.3-0.8,4.2,1.2c0,0-0.8-1.7-0.4-2.1c0,0,2.3,2.1,0.9,4.8c0,0-1,0.3-1.9-1.6l-2.1-0.7
		C78.2,57.5,76.4,56.4,77.5,55.9z"/>
	<path class="st0" d="M79.8,58c0,0,2.1-0.9,2.9,2.9c0,0,0.8,5.1,3.4,6c0,0,3.3,2,2,8.5l-0.2,2c0,0-0.7,0.5-1.6-0.6
		c0,0-1.3,4.4-2.6,4.2c0,0,0.5-4-2.4-5.6c0,0-4.8-0.9-2.4-8C79,67.5,82.3,62.4,79.8,58z"/>
	<path class="st3" d="M80.4,69.7c0,0-1,3.3,1.2,4.7c0,0-0.4-0.9-0.4-1.8C81.2,71.7,80.4,69.7,80.4,69.7z"/>
	<path class="st3" d="M81.5,71.1c0,0,0.1,2.3,1.5,3.4c1.4,1.1,1.5,1.9,1.5,1.9s0.1-1.9-0.8-3.4C82.8,71.6,81.5,71.1,81.5,71.1z"/>
	<path class="st3" d="M82.3,68.7c0,0,1.1,1.3,1.8,1.9c0.6,0.6,1.1,2.8,1.1,2.8s-1.6-1.3-1.9-2C83.1,70.8,82.3,68.7,82.3,68.7z"/>
	<path class="st4" d="M79.6,30.6c0,0-0.5-0.7-1-1c0,0-0.6-0.5-2.5-0.3c0,0,0.6,0.9,1.6,1.3C77.8,30.5,78.9,30.9,79.6,30.6z"/>
	<path class="st7" d="M84.1,28.7c0,0,0.3-0.3,0.2-1.1c0,0,0.3-0.8-0.7-0.9c-1-0.1,0-0.1,0-0.1s-0.8-1.2-1.9-0.8c0,0-0.5,0.1-0.6,0.6
		c0,0,0.1,0.5-0.3,0.6c0,0-0.9,0.2-1,0.3c0,0-0.9,0.2-0.6,1.2c0,0,0.3,0.5,0.8,0.9c0,0,0.5,1.1,0.7,1.3c0,0,0.3,0.4,1.1,0.3
		c0,0,0.9,0.1,1.3-0.2c0,0-0.1-0.9,0.3-1.1"/>
	<ellipse class="st4" cx="82" cy="28.3" rx="0.6" ry="0.5"/>
	<path class="st4" d="M94.8,36.5l-0.4-0.1c0,0-0.6-2-0.1-3c0,0,1.4,1.5,1,2.9L94.8,36.5z"/>
	<path class="st4" d="M89,38c0,0-1.4-0.5-2.1-0.4c0,0,0.6,1.8,2,1.4c0,0,0.4,0.3,0.5-0.8L89,38z"/>
	<path class="st4" d="M87.3,30.8c0,0-0.6,0.3-1.4,0.2c0,0-1.1-0.1-1.4-0.5c0,0-0.5-1.2,0.9-1.4c0,0-0.6-1.5,0.4-1.9
		c0,0,1-0.2,1.4,1.4c0,0,1.1-0.3,1.4,0.1c0,0,1.5,1.8-0.6,2.4L87.3,30.8z"/>
	<path class="st4" d="M97.9,44.9c0,0-1.4-0.4-0.8-1.5c0,0,0.4-0.7,0.3-1.5c0,0,0.6-1.1,1.8,0.3c0,0,0.2,0.7,0.6,0.7
		c0,0,1.2,0.4,1.4,0.6c0,0,0.9,1,0.2,1.6c0,0-0.5,0.4-0.9,0.4c0,0-0.4,0.5-0.4,0.9c0,0-0.1,0.6-0.8,0.1
		C99.4,46.5,98.9,46.1,97.9,44.9z"/>
	<path class="st4" d="M94.5,42.8c0,0,1.3,0.1,1.3-1.1c0,0,0-0.5-0.9-1.1c0,0,0.9-0.6,0.5-1.7c0,0,0.3-0.6-1.5-0.3
		c0,0-0.4,0.1-1.1-0.3c0,0-1-0.8-1.9-0.4c0,0-1.1,0.7,0.1,2.6c0,0,0.3,0.3,0.2,0.4c0,0-0.3,0.6-0.9,1c0,0-0.2,1,1.2,1.5
		c0,0,1.3,0.5,2.1,0.5C93.6,44,94.6,43.7,94.5,42.8z"/>
	<ellipse class="st0" cx="92.9" cy="40.9" rx="0.6" ry="0.5"/>
	<path class="st4" d="M95,51.9c0,0-0.9,0.2-1.3,0c0,0-1.3-0.5-1.3-1c0,0,0-0.2,0.3-1.2c0,0-0.1-0.4-0.4-0.5c0,0-0.8-0.1-0.8-0.9
		c0,0-0.2-1.1,0.7-1.4c0,0,0.7-0.2,0.7-0.8c0,0-0.1-1.1,0.8-1.2c0,0,0.7-0.4,1.7,0.9c0,0,0.2,0.3,0.9,0c0,0,0.7-0.4,1.1,0.4
		c0,0,0.6,0.7,0.1,1.6c0,0-0.3,0.5-0.7,0.6c0,0,0.6,0.8,0.7,1.1c0,0,0.3,1.3-1,1.4c0,0-1.3-0.8-1.7-1.3C94.8,49.7,94.5,51.3,95,51.9
		z"/>
	<ellipse class="st0" cx="95" cy="48.1" rx="0.6" ry="0.5"/>
	<path class="st4" d="M90.1,37.1c0,0-1.1-2.7-1-3.3c0,0,3,1.5,2.7,2.8C91.8,36.6,90.6,36.6,90.1,37.1z"/>
	<path class="st4" d="M94.5,89.1c0,0-0.2-1.8,3-1.9c0,0-0.3,1-1,1.4C96.5,88.6,95.8,89.4,94.5,89.1z"/>
	<path class="st4" d="M87.3,86.4c0,0-1.5-2.4,0.5-5.5c0,0,0.8,1.3,0.7,1.9c0,0,0.2,1.4-0.3,1.8C88.3,84.6,87.6,86.1,87.3,86.4z"/>
	<path class="st4" d="M101,55.4c0,0-2,0-1.6-2.3c0,0,0.7-0.9,0.9-1.7c0,0-0.5-2.2,0.4-2.7c0,0,2.7,2.3,1,6.7L101,55.4z"/>
	<path class="st4" d="M95.3,83.3c0,0,0.9,2.1,2.1,0.8c0,0,0.3-0.3,0.5-0.6c0.2-0.3,0-0.1,0-0.1s0.5,0.8,1.2,0.5c0,0,1.3-0.6,0-2.1
		c0,0-0.8-0.6-0.9-0.6c0,0-0.7,1.3-2.3,1C95.9,82.2,95.8,82.9,95.3,83.3z"/>
	<path class="st4" d="M103.3,58.2c0,0,0-1.5,0.6-1.5c0,0,0.8,0,0.6,2c0,0-0.1,1.9,0.9,2.1c0,0-0.4,0.5-1.4,0.5c0,0-0.6-0.9-1.9-0.4
		C102.1,60.9,101.3,58.3,103.3,58.2z"/>
	<path class="st4" d="M95.8,57.9c0,0-0.3,1.4,0.6,2c0,0-0.7,0.7-0.7,1.6c0,0,0.2,0.6,0.8,0.9l2.5-1c0,0,0.2-1.8-1.5-2.4
		C97.6,59,97.3,58,95.8,57.9z"/>
	<ellipse class="st0" cx="87.1" cy="30.4" rx="0.6" ry="0.5"/>
</g>
<g>
	<path class="st0" d="M168.5,91.2h-6.3V83h6c1.5,0,4.3,0.1,4.3,3.2v1.9C172.4,88.9,172.2,91.2,168.5,91.2z M170.8,85.8
		c0-0.4-0.2-1.9-2.4-1.9h-4.6v6.3h4.4c2.3,0,2.6-0.9,2.6-2.3V85.8z"/>
	<path class="st0" d="M178.8,91.2V83h8v1h-6.4v2.6h6.1v0.9h-6.1v2.8h6.4v1H178.8z"/>
	<path class="st0" d="M205.4,91.2v-7.1l-4.4,7.1h-1.5l-4.4-7.1v7.1h-1.6V83h2.6l4.2,6.8l4.2-6.8h2.6v8.2H205.4z"/>
	<path class="st0" d="M219.5,91.3h-1.6c-3,0-4-0.7-4-2.7v-2.9c0-2.1,0.9-2.8,4-2.8h1.6c3.1,0,4,0.7,4,2.8v2.9
		C223.5,90.6,222.5,91.3,219.5,91.3z M221.9,85.7c0-1.5-0.5-1.8-2.4-1.8h-1.6c-1.9,0-2.4,0.3-2.4,1.8v2.9c0,1.5,0.7,1.7,2.4,1.7h1.6
		c1.7,0,2.4-0.2,2.4-1.7V85.7z"/>
	<path class="st0" d="M235.4,91.3h-1.9c-2.3,0-3.6-1-3.6-2.6v-3.1c0-2.3,2.2-2.6,5.2-2.6h1.1c2.6,0,3.4,0.7,3.4,2.4v0.4H238v-0.3
		c0-1.1-0.3-1.5-2-1.5h-0.8c-2.7,0-3.7,0.2-3.7,1.6v2.2c0,1.8,0.1,2.6,2.3,2.6h1.6c2.1,0,2.8-0.2,2.8-1.3v-0.7h1.6v0.8
		C239.7,91.1,237.9,91.3,235.4,91.3z"/>
	<path class="st0" d="M254.1,87.5c0.9,0.2,1.5,0.7,1.5,1.5v2.2h-1.6v-1.8c0-1-0.4-1.4-1.9-1.4h-4.3v3.2h-1.6V83h5.7
		c2.7,0,3.9,0.5,3.9,2.4C255.7,86.5,255.4,87.3,254.1,87.5z M251.9,84h-4.1V87h4.1c2,0,2.3-0.4,2.3-1.7
		C254.1,84.3,253.9,84,251.9,84z"/>
	<path class="st0" d="M271.1,91.2l-0.9-1.7h-5.9l-0.9,1.7h-1.7l4.5-8.2h2.1l4.6,8.2H271.1z M267.2,84.1l-2.5,4.5h5L267.2,84.1z"/>
	<path class="st0" d="M281.9,84v7.2h-1.6V84h-3.9v-1h9.4v1H281.9z"/>
	<path class="st0" d="M310.4,88.1h-4.6v3.1h-1.6V83h6.3c2.4,0,3,1.1,3,2.5C313.5,86.3,313.4,88.1,310.4,88.1z M309.9,84h-4.1v3.1
		h3.4c1.7,0,2.6,0,2.6-1.5C311.8,84.2,311.4,84,309.9,84z"/>
	<path class="st0" d="M327,91.2l-0.9-1.7h-5.9l-0.9,1.7h-1.7L322,83h2.1l4.6,8.2H327z M323.1,84.1l-2.5,4.5h5L323.1,84.1z"/>
	<path class="st0" d="M342.7,87.5c0.9,0.2,1.5,0.7,1.5,1.5v2.2h-1.6v-1.8c0-1-0.3-1.4-1.9-1.4h-4.3v3.2h-1.6V83h5.7
		c2.7,0,3.9,0.5,3.9,2.4C344.4,86.5,344.1,87.3,342.7,87.5z M340.5,84h-4.1V87h4.1c2,0,2.2-0.4,2.2-1.7
		C342.8,84.3,342.6,84,340.5,84z"/>
	<path class="st0" d="M355.8,84v7.2h-1.6V84h-3.9v-1h9.4v1H355.8z"/>
	<path class="st0" d="M370.7,87.8v3.4h-1.6v-3.4l-4.5-4.8h1.9l3.5,3.7l3.5-3.7h1.9L370.7,87.8z"/>
</g>
<line class="st8" x1="134.6" y1="103.2" x2="402.5" y2="103.2"/>
</svg>
